<svg width="36" height="36" viewBox="0 0 36 36" fill="none" xmlns="http://www.w3.org/2000/svg">
<path d="M27.9973 12.4994C28.3579 12.3193 28.7876 12.3459 29.1233 12.5692L33.6233 15.5633C33.9366 15.7719 34.125 16.1234 34.125 16.4999V22.4999C34.125 22.8761 33.9371 23.2274 33.624 23.436L29.124 26.436C28.7877 26.6603 28.357 26.6868 27.9957 26.5056L24.375 24.6897V14.3088L27.9973 12.4994Z" fill="white"/>
<path d="M6.87682 12.5692C7.21249 12.3459 7.64203 12.3193 8.00272 12.4994L11.625 14.3088V24.6897L8.00433 26.5056C7.64302 26.6868 7.21227 26.6603 6.87596 26.436L2.37595 23.436C2.06299 23.2274 1.875 22.8761 1.875 22.4999V16.4999C1.875 16.1234 2.06336 15.7719 2.37683 15.5633L6.87682 12.5692Z" fill="white"/>
<path fill-rule="evenodd" clip-rule="evenodd" d="M18 6C12.8042 6 9 9.56646 9 13.5H6C6 7.49241 11.5979 3 18 3C24.4021 3 30 7.49241 30 13.5H27C27 9.56646 23.1959 6 18 6Z" fill="white"/>
<path fill-rule="evenodd" clip-rule="evenodd" d="M27 30V25.5H30V31.5C30 32.3285 29.3285 33 28.5 33H18V30H27Z" fill="white"/>
</svg>
