<svg width="36" height="36" viewBox="0 0 36 36" fill="none" xmlns="http://www.w3.org/2000/svg">
<path fill-rule="evenodd" clip-rule="evenodd" d="M18.7954 2.2045C18.3561 1.76517 17.6439 1.76517 17.2045 2.2045L13.034 6.375H7.5C6.87868 6.375 6.375 6.87868 6.375 7.5V13.034L2.2045 17.2045C1.76517 17.6439 1.76517 18.3561 2.2045 18.7954L6.375 22.966V28.5C6.375 29.1213 6.87868 29.625 7.5 29.625H13.034L17.2045 33.7955C17.6439 34.2348 18.3561 34.2348 18.7954 33.7955L22.966 29.625H28.5C29.1213 29.625 29.625 29.1213 29.625 28.5V22.966L33.7955 18.7954C34.2348 18.3561 34.2348 17.6439 33.7955 17.2045L29.625 13.034V7.5C29.625 6.87868 29.1213 6.375 28.5 6.375H22.966L18.7954 2.2045ZM21.6385 13.5264L16.0746 20.1501L13.4881 17.901L12.0117 19.5988L16.3252 23.3497L23.3613 14.9736L21.6385 13.5264Z" fill="white"/>
</svg>
