<svg width="36" height="36" viewBox="0 0 36 36" fill="none" xmlns="http://www.w3.org/2000/svg">
<path d="M26.625 31.74L22.5 27.24L24.24 25.5L26.625 27.885L32.01 22.5L33.75 24.615L26.625 31.74ZM19.5 27.315C18.75 28.05 17.67 28.5 16.5 28.5C14.025 28.5 12 26.475 12 24V19.5H21V22.035C21.75 20.88 22.8 19.905 24 19.215V16.5H9V24C9 26.46 10.215 28.635 12.045 30H6V6H9V9C9 9.825 9.675 10.5 10.5 10.5H22.5C23.325 10.5 24 9.825 24 9V6H27V3H6C4.35 3 3 4.35 3 6V30C3 31.65 4.35 33 6 33H21.81C20.445 31.5 19.59 29.505 19.5 27.315ZM15 13.5C15 14.325 15.675 15 16.5 15C17.325 15 18 14.325 18 13.5C18 12.675 17.325 12 16.5 12C15.675 12 15 12.675 15 13.5Z" fill="white"/>
</svg>
