<svg width="40" height="40" viewBox="0 0 40 40" fill="none" xmlns="http://www.w3.org/2000/svg">
<path d="M6.29603 19.9039C4.71599 17.1488 3.95308 14.8991 3.49306 12.6187C2.8127 9.24594 4.36968 5.95132 6.94896 3.8491C8.03907 2.96062 9.28871 3.26418 9.93333 4.42064L11.3886 7.03149C12.5421 9.10092 13.1189 10.1356 13.0045 11.2326C12.8901 12.3296 12.1123 13.2231 10.5566 15.01L6.29603 19.9039ZM6.29603 19.9039C9.49417 25.4804 14.5131 30.5021 20.0961 33.7039M20.0961 33.7039C22.8512 35.284 25.1009 36.0469 27.3813 36.5069C30.754 37.1873 34.0487 35.6303 36.1509 33.051C37.0394 31.9609 36.7358 30.7113 35.5793 30.0666L32.9685 28.6113C30.8991 27.4578 29.8643 26.8811 28.7673 26.9955C27.6703 27.1099 26.7769 27.8877 24.99 29.4434L20.0961 33.7039Z" stroke="#EB502C" stroke-width="2.5" stroke-linejoin="round"/>
<path d="M23.3333 11.3864C25.7054 12.3937 27.6063 14.2946 28.6136 16.6666M24.4234 3.33331C30.3187 5.03458 34.9652 9.68085 36.6667 15.576" stroke="#EB502C" stroke-width="2.5" stroke-linecap="round"/>
</svg>
