<svg width="24" height="25" viewBox="0 0 24 25" fill="none" xmlns="http://www.w3.org/2000/svg">
<path fill-rule="evenodd" clip-rule="evenodd" d="M9.74667 4.48564C10.0247 3.7397 10.41 3.09736 10.8306 2.75L11.7857 3.90658C11.6597 4.0107 11.3912 4.36836 11.1522 5.00955C10.9235 5.62297 10.7507 6.42155 10.7507 7.32829H9.25071C9.25071 6.23504 9.45826 5.25935 9.74667 4.48564ZM13.1123 5.35801C13.1788 5.1958 13.3014 4.93255 13.5224 4.75L14.4776 5.90658C14.5219 5.86997 14.5406 5.84151 14.5407 5.84157C14.5408 5.84162 14.5257 5.86493 14.5004 5.92653C14.4605 6.02412 14.4171 6.1638 14.3771 6.33423C14.2964 6.67841 14.2488 7.06366 14.2488 7.32829H12.7488C12.7488 6.92625 12.8152 6.42437 12.9167 5.99166C12.9679 5.77364 13.0327 5.55243 13.1123 5.35801ZM6.95619 4.85699C6.95642 4.85671 6.95665 4.85643 7.53961 5.32829C8.12258 5.80015 8.1228 5.79988 8.12302 5.7996L8.12428 5.79804L8.1258 5.79614L8.12826 5.79303L8.13101 5.78947C8.13191 5.78829 8.13077 5.78948 8.12826 5.79303C8.12323 5.80012 8.11212 5.81661 8.09641 5.84249C8.06499 5.89425 8.01616 5.9833 7.96503 6.10965C7.86343 6.36069 7.75 6.76544 7.75 7.32829H6.25C6.25 6.55781 6.40638 5.96255 6.57458 5.54693C6.65835 5.33994 6.74443 5.179 6.81418 5.06409C6.84906 5.00664 6.8799 4.96063 6.90438 4.92607C6.91662 4.90878 6.92729 4.89433 6.93609 4.88273L6.94787 4.86746L6.95265 4.86141L6.95475 4.85879L6.95619 4.85699Z" fill="#EB502C"/>
<path fill-rule="evenodd" clip-rule="evenodd" d="M1.46542 8.97395C1.60641 8.83068 1.799 8.75 2 8.75H9.24906L9.24981 13.2502H9.00001C8.66515 13.2502 8.37086 13.4722 8.27886 13.7942L7.27886 17.2942C7.21421 17.5204 7.25952 17.764 7.40125 17.9518C7.54297 18.1397 7.76466 18.2502 8.00001 18.2502H12C12.2353 18.2502 12.457 18.1397 12.5988 17.9518C12.7405 17.764 12.7858 17.5204 12.7211 17.2942L11.7211 13.7942C11.6292 13.4722 11.3349 13.2502 11 13.2502H10.7498L10.7491 8.75H18C18.201 8.75 18.3936 8.83068 18.5346 8.97395C18.6756 9.11722 18.7531 9.31108 18.7499 9.51206C18.7433 9.92415 18.7333 10.3372 18.7179 10.75H21.9996C22.4138 10.75 22.7496 11.0858 22.7496 11.5C22.7496 14.7541 21.3693 16.5028 19.8855 17.3931C19.1678 17.8237 18.4562 18.036 17.9279 18.1417C17.6702 18.1932 17.4522 18.2202 17.2927 18.2343C16.6773 19.6275 15.8029 20.9205 14.5599 22.0541C14.4217 22.1801 14.2414 22.25 14.0545 22.25H5.94554C5.75855 22.25 5.57831 22.1801 5.44015 22.0541C1.80867 18.7421 1.32341 14.0708 1.2501 9.51206C1.24687 9.31108 1.32444 9.11722 1.46542 8.97395ZM17.8859 16.6134C18.252 16.5198 18.6848 16.3642 19.1137 16.1069C20.0324 15.5557 21.0356 14.4802 21.2197 12.25H18.6345C18.5205 13.7414 18.3031 15.2132 17.8859 16.6134Z" fill="#EB502C"/>
<path d="M9.56557 14.75L8.99414 16.75H11.0055L10.4341 14.75H9.56557Z" fill="#EB502C"/>
</svg>
