<svg width="24" height="25" viewBox="0 0 24 25" fill="none" xmlns="http://www.w3.org/2000/svg">
<path fill-rule="evenodd" clip-rule="evenodd" d="M1.25 6.5C1.25 6.08579 1.58579 5.75 2 5.75H19C19.4142 5.75 19.75 6.08579 19.75 6.5V9.36614L22.7501 9.87281V15.1274L19.75 15.6341V18.5C19.75 18.9142 19.4142 19.25 19 19.25H2C1.58579 19.25 1.25 18.9142 1.25 18.5V6.5ZM19.75 14.1129V10.8874L21.2501 11.1407V13.8595L19.75 14.1129ZM11.6506 9.37214L10.3482 8.62793L7.70703 13.25H10.7073L9.34826 15.6279L10.6506 16.3722L13.2923 11.75H10.2918L11.6506 9.37214Z" fill="#EB502C"/>
</svg>
