<svg width="24" height="24" viewBox="0 0 24 24" fill="none" xmlns="http://www.w3.org/2000/svg">
<path fill-rule="evenodd" clip-rule="evenodd" d="M8.25 9.6C8.25 8.85442 8.85442 8.25 9.6 8.25H19.4C20.1456 8.25 20.75 8.85442 20.75 9.6V19.4C20.75 20.1456 20.1456 20.75 19.4 20.75H9.6C8.85442 20.75 8.25 20.1456 8.25 19.4V9.6ZM9.75 9.75V19.25H19.25V9.75H9.75Z" fill="#EB502C"/>
<path fill-rule="evenodd" clip-rule="evenodd" d="M3.25 4.6C3.25 3.85442 3.85442 3.25 4.6 3.25H14.4C15.1456 3.25 15.75 3.85442 15.75 4.6V9C15.75 9.41421 15.4142 9.75 15 9.75C14.5858 9.75 14.25 9.41421 14.25 9V4.75H4.75V14.25H9C9.41421 14.25 9.75 14.5858 9.75 15C9.75 15.4142 9.41421 15.75 9 15.75H4.6C3.85442 15.75 3.25 15.1456 3.25 14.4V4.6Z" fill="#EB502C"/>
</svg>
