<svg width="24" height="25" viewBox="0 0 24 25" fill="none" xmlns="http://www.w3.org/2000/svg">
<path d="M14.5 20C14.5 18.6193 15.6193 17.5 17 17.5C18.3807 17.5 19.5 18.6193 19.5 20C19.5 21.3807 18.3807 22.5 17 22.5C15.6193 22.5 14.5 21.3807 14.5 20Z" fill="#EB502C"/>
<path d="M4.5 20C4.5 18.6193 5.61929 17.5 7 17.5C8.38071 17.5 9.5 18.6193 9.5 20C9.5 21.3807 8.38071 22.5 7 22.5C5.61929 22.5 4.5 21.3807 4.5 20Z" fill="#EB502C"/>
<path fill-rule="evenodd" clip-rule="evenodd" d="M1.25 8.45705V19.733C1.25 20.1473 1.58579 20.483 2 20.483H3.28082C3.26049 20.3249 3.25 20.1637 3.25 20C3.25 17.9289 4.92893 16.25 7 16.25C9.07107 16.25 10.75 17.9289 10.75 20C10.75 20.1637 10.7395 20.3249 10.7192 20.483H13.2808C13.2605 20.3249 13.25 20.1637 13.25 20C13.25 17.9289 14.9289 16.25 17 16.25C19.0711 16.25 20.75 17.9289 20.75 20C20.75 20.1637 20.7395 20.3249 20.7192 20.483H22C22.4142 20.483 22.75 20.1473 22.75 19.733V13.25C22.75 13.1141 22.7131 12.9807 22.6431 12.8641L19.4246 7.49987L15.25 7.49988V6.25C15.25 5.83579 14.9142 5.5 14.5 5.5H10.7249L11.432 6.20705L5.95711 11.6819L2.81802 8.45705H1.25ZM15.25 12.4999V8.99976H18.5754L20.6754 12.4999H15.25Z" fill="#EB502C"/>
<path fill-rule="evenodd" clip-rule="evenodd" d="M5.95711 2.5L9.66421 6.20711L5.95711 9.91421L4.54289 8.5L5.83579 7.20711H1.25V5.20711H5.83579L4.54289 3.91421L5.95711 2.5Z" fill="#EB502C"/>
</svg>
