<svg width="33" height="32" viewBox="0 0 33 32" fill="none" xmlns="http://www.w3.org/2000/svg">
<path d="M24.7303 12.9718C24.69 12.078 24.5456 11.4664 24.3408 10.9322C24.1259 10.3811 23.8404 9.91068 23.3736 9.44697C22.9068 8.98327 22.4401 8.69094 21.8893 8.47924C21.3554 8.27091 20.7442 8.12979 19.8509 8.08947C18.9543 8.04914 18.6689 8.03906 16.392 8.03906C14.1118 8.03906 13.8264 8.04914 12.9331 8.08947C12.0399 8.12979 11.4287 8.27427 10.8947 8.47924C10.3406 8.6943 9.87049 8.97991 9.40707 9.44697C8.94364 9.91404 8.65148 10.3811 8.43992 10.9322C8.23507 11.4664 8.09067 12.078 8.05037 12.9718C8.01007 13.869 8 14.1546 8 16.4328C8 18.7143 8.01007 18.9999 8.05037 19.8937C8.09067 20.7876 8.23507 21.3991 8.43992 21.9334C8.65484 22.4844 8.94028 22.9549 9.40707 23.4186C9.87049 23.8856 10.3406 24.1746 10.8914 24.3863C11.4253 24.5946 12.0365 24.7358 12.9298 24.7761C13.8264 24.8164 14.1118 24.8265 16.3887 24.8265C18.6689 24.8265 18.9543 24.8164 19.8476 24.7761C20.7408 24.7358 21.352 24.5913 21.886 24.3863C22.4367 24.1712 22.9068 23.8856 23.3703 23.4186C23.8337 22.9515 24.1259 22.4844 24.3374 21.9334C24.5456 21.3991 24.6867 20.7876 24.727 19.8937C24.7673 18.9966 24.7773 18.711 24.7773 16.4328C24.7773 14.1546 24.7706 13.8656 24.7303 12.9718ZM23.2225 19.8265C23.1856 20.6464 23.0479 21.0933 22.9337 21.3857C22.7826 21.7754 22.5979 22.0577 22.3024 22.3534C22.0069 22.6491 21.7281 22.8272 21.3352 22.9851C21.0397 23.0993 20.5931 23.2371 19.777 23.2741C18.8939 23.3144 18.6286 23.3245 16.3853 23.3245C14.1421 23.3245 13.8768 23.3144 12.9936 23.2741C12.1742 23.2371 11.7276 23.0993 11.4354 22.9851C11.0458 22.8339 10.7638 22.6491 10.4682 22.3534C10.1727 22.0577 9.99474 21.7788 9.83691 21.3857C9.72273 21.09 9.58505 20.6431 9.54811 19.8265C9.50781 18.9428 9.49774 18.6774 9.49774 16.4328C9.49774 14.1882 9.50781 13.9227 9.54811 13.039C9.58505 12.2191 9.72273 11.7722 9.83691 11.4799C9.98803 11.0901 10.1727 10.8078 10.4682 10.5121C10.7638 10.2165 11.0425 10.0384 11.4354 9.88044C11.7309 9.76619 12.1775 9.62842 12.9936 9.59146C13.8768 9.55114 14.1421 9.54106 16.3853 9.54106C18.6286 9.54106 18.8939 9.55114 19.777 9.59146C20.5964 9.62842 21.0431 9.76619 21.3352 9.88044C21.7248 10.0316 22.0069 10.2165 22.3024 10.5121C22.5979 10.8078 22.7759 11.0867 22.9337 11.4799C23.0479 11.7756 23.1856 12.2225 23.2225 13.039C23.2628 13.9227 23.2729 14.1882 23.2729 16.4328C23.2729 18.6774 23.2595 18.9428 23.2225 19.8265Z" fill="white"/>
<path d="M16.3852 12.1183C14.0009 12.1183 12.0733 14.0504 12.0733 16.4328C12.0733 18.8185 14.0042 20.7473 16.3852 20.7473C18.7661 20.7473 20.697 18.8118 20.697 16.4328C20.697 14.0471 18.7695 12.1183 16.3852 12.1183ZM16.3852 19.2318C14.8404 19.2318 13.5878 17.9785 13.5878 16.4328C13.5878 14.8871 14.8404 13.6338 16.3852 13.6338C17.9299 13.6338 19.1825 14.8871 19.1825 16.4328C19.1825 17.9785 17.9299 19.2318 16.3852 19.2318Z" fill="white"/>
<path d="M20.8653 12.9584C21.4217 12.9584 21.8728 12.507 21.8728 11.9503C21.8728 11.3936 21.4217 10.9423 20.8653 10.9423C20.3089 10.9423 19.8579 11.3936 19.8579 11.9503C19.8579 12.507 20.3089 12.9584 20.8653 12.9584Z" fill="white"/>
</svg>
