<svg width="32" height="32" viewBox="0 0 32 32" fill="none" xmlns="http://www.w3.org/2000/svg">
<path fill-rule="evenodd" clip-rule="evenodd" d="M21.6801 6.96549C22.3619 6.427 22.8181 5.61424 22.8181 4.66675C22.8181 2.92976 21.31 1.66675 19.6364 1.66675H12.3636C10.6901 1.66675 9.18181 2.92976 9.18181 4.66675C9.18181 5.60059 9.62544 6.40395 10.2909 6.94245C8.35377 10.5947 7 13.9295 7 18.3695V29.3334C7 29.8857 7.44772 30.3334 8 30.3334H24C24.5523 30.3334 25 29.8857 25 29.3334V18.3695C25 13.9309 23.6153 10.6056 21.6801 6.96549ZM11.1807 4.66675C11.1807 4.19459 11.6262 3.66675 12.3626 3.66675H19.6353C20.3717 3.66675 20.8171 4.19459 20.8171 4.66675C20.8171 5.03643 20.5597 5.42435 20.0873 5.59049L17.9819 5.66689L18.0161 7.6666L19.7587 7.61537C21.7257 11.2797 22.9989 14.3067 22.9989 18.3695V18.7193L9.25781 15.2841C9.71845 12.6274 10.7683 10.2834 12.201 7.60903L13.9801 7.66657L14.0164 5.66689L11.8888 5.5826C11.4297 5.41181 11.1807 5.03089 11.1807 4.66675Z" fill="#EB502C"/>
</svg>
