<svg width="32" height="32" viewBox="0 0 32 32" fill="none" xmlns="http://www.w3.org/2000/svg">
<path d="M26.6949 11.2101C25.0457 9.82446 22.8223 9.42689 20.5931 9.79842C18.1773 10.201 15.6664 11.5111 13.5887 13.5888C11.511 15.6665 10.201 18.1774 9.79833 20.5932C9.49751 22.3981 9.70089 24.1992 10.5247 25.6948C11.1695 25.5912 11.698 25.4888 12.0174 25.4193C12.2274 25.3501 12.4412 25.2852 12.6582 25.219C13.5895 24.9357 14.5801 24.6344 15.588 23.9158C16.7957 23.0548 18.0621 21.5429 18.8739 18.5666C20.2005 13.7018 24.2008 11.7123 26.1561 11.3075C26.2925 11.272 26.4728 11.238 26.6949 11.2101Z" fill="#EB502C"/>
<path d="M28.2332 13.1449C27.32 13.1233 26.7873 13.2071 26.6579 13.2436C26.6329 13.2506 26.6077 13.2567 26.5824 13.2618C25.1671 13.5449 21.8867 15.1209 20.8033 19.0929C19.8881 22.4489 18.384 24.3786 16.7491 25.5442C15.4453 26.4737 14.0743 26.8854 13.1346 27.1674C12.935 27.2274 12.7548 27.2816 12.5989 27.3336C12.5663 27.3444 12.5331 27.3536 12.4995 27.361C12.3636 27.3912 12.1897 27.4274 11.9846 27.4674C13.6324 28.8436 15.8496 29.2378 18.0725 28.8674C20.4883 28.4648 22.9992 27.1548 25.0769 25.077C27.1547 22.9993 28.4647 20.4884 28.8673 18.0726C29.1565 16.3372 28.9796 14.6052 28.2332 13.1449Z" fill="#EB502C"/>
<path d="M6.57817 5.34109C6.54165 5.21169 6.45783 4.67896 6.47943 3.76572C7.93969 3.01933 9.67171 2.84243 11.4072 3.13167C13.8229 3.53429 16.3339 4.84435 18.4116 6.92204C18.7607 7.27108 19.088 7.63236 19.3931 8.00335C17.1579 8.54072 14.9519 9.70268 13.0349 11.3724C12.8378 11.3113 12.6353 11.2523 12.4274 11.1956C8.45545 10.1123 6.87941 6.83192 6.59635 5.41656C6.59127 5.39117 6.5852 5.366 6.57817 5.34109Z" fill="#EB502C"/>
<path d="M11.4188 12.9819C6.904 11.5309 5.03318 7.73224 4.6421 5.84277C4.60652 5.70641 4.57253 5.52609 4.54468 5.30396C3.15902 6.95318 2.76145 9.17664 3.13298 11.4058C3.53561 13.8216 4.84566 16.3325 6.92334 18.4102C7.2723 18.7592 7.63349 19.0865 8.0044 19.3914C8.5467 17.1362 9.72484 14.9109 11.4188 12.9819Z" fill="#EB502C"/>
</svg>
