<svg width="32" height="32" viewBox="0 0 32 32" fill="none" xmlns="http://www.w3.org/2000/svg">
<path fill-rule="evenodd" clip-rule="evenodd" d="M16.374 1.94325C16.2045 1.81832 16.0716 1.72024 16 1.66675C15.9284 1.72024 15.7955 1.81832 15.626 1.94325C15.0397 2.37552 14.0173 3.12932 13.5964 3.47065C12.5127 4.3494 11.0644 5.60343 9.61253 7.10151C8.16372 8.59641 6.69045 10.3556 5.57454 12.2467C4.46253 14.1311 3.66666 16.2119 3.66666 18.3313C3.66666 24.2422 8.34325 30.3334 16 30.3334C23.6568 30.3334 28.3333 24.2422 28.3333 18.3313C28.3333 16.2119 27.5375 14.1311 26.4255 12.2467C25.3096 10.3557 23.8363 8.59641 22.3875 7.10151C20.9356 5.60341 19.4873 4.3494 18.4036 3.47065C17.9827 3.12932 16.9603 2.37552 16.374 1.94325ZM20 18.6665C20 20.8755 18.2092 22.6665 16 22.6665V25.3331C19.6819 25.3331 22.6667 22.3483 22.6667 18.6665H20Z" fill="#EB502C"/>
</svg>
