<svg width="16" height="17" viewBox="0 0 16 17" fill="none" xmlns="http://www.w3.org/2000/svg">
<g clip-path="url(#clip0_5234_3896)">
<path d="M8 1.5C4.6862 1.5 2 4.1862 2 7.5C2 9.1563 2.6711 10.656 3.7565 11.7417C4.8422 12.828 7.4 14.4 7.55 16.05C7.57249 16.2974 7.7516 16.5 8 16.5C8.2484 16.5 8.42751 16.2974 8.45 16.05C8.6 14.4 11.1578 12.828 12.2435 11.7417C13.3289 10.656 14 9.1563 14 7.5C14 4.1862 11.3138 1.5 8 1.5Z" fill="#FF4433"/>
<path d="M7.9999 9.60039C9.1597 9.60039 10.0999 8.66018 10.0999 7.50039C10.0999 6.34059 9.1597 5.40039 7.9999 5.40039C6.84011 5.40039 5.8999 6.34059 5.8999 7.50039C5.8999 8.66018 6.84011 9.60039 7.9999 9.60039Z" fill="white"/>
</g>
<defs>
<clipPath id="clip0_5234_3896">
<rect width="16" height="16" fill="white" transform="translate(0 0.5)"/>
</clipPath>
</defs>
</svg>
