<svg width="33" height="32" viewBox="0 0 33 32" fill="none" xmlns="http://www.w3.org/2000/svg">
<path d="M8 15.828C11.4966 15.7877 13.4536 15.5589 14.7563 14.2563C16.0589 12.9536 16.2877 10.9966 16.328 7.5C11.7692 7.5905 8.0905 11.2692 8 15.828Z" fill="white"/>
<path d="M16.8356 7.5048C16.876 10.9984 17.1052 12.9542 18.4073 14.2563C19.6894 15.5384 21.6057 15.7803 25 15.8259C24.9095 11.3228 21.3178 7.6788 16.8356 7.5048Z" fill="white"/>
<path d="M24.9952 16.3377C21.6038 16.3835 19.6888 16.6257 18.4073 17.9073C17.1257 19.1888 16.8835 21.1038 16.8377 24.4952C21.2645 24.3223 24.8223 20.7645 24.9952 16.3377Z" fill="white"/>
<path d="M16.3259 24.5C16.2803 21.1057 16.0384 19.1894 14.7563 17.9073C13.4542 16.6052 11.4984 16.376 8.0048 16.3356C8.1788 20.8178 11.8228 24.4095 16.3259 24.5Z" fill="white"/>
</svg>
