<svg width="24" height="25" viewBox="0 0 24 25" fill="none" xmlns="http://www.w3.org/2000/svg">
<path d="M11.7655 18.1511C18.4429 18.1511 22.3647 15.4775 22.3647 15.4775L22.3617 19.4135C22.3617 19.4135 18.5584 22.6926 11.7681 22.6926H11.7655C4.97537 22.6926 1.17204 19.4135 1.17204 19.4135L1.16888 15.4775C1.16888 15.4775 5.08836 18.1503 11.7655 18.1503V18.1511Z" fill="#E11023"/>
<path d="M17.9121 2.00041C17.1696 1.99129 16.4327 2.13467 15.7442 2.42222C15.0556 2.70962 14.4291 3.13554 13.9009 3.67528C13.3727 4.21502 12.9534 4.85784 12.6673 5.56645C12.3808 6.27494 12.2334 7.0352 12.2334 7.80311C12.2334 8.57102 12.3808 9.33128 12.6673 10.0398C12.9533 10.7483 13.3726 11.3911 13.9008 11.9308C14.429 12.4706 15.0556 12.8966 15.7442 13.184C16.7708 13.6127 17.897 13.7179 18.9812 13.4862C20.0654 13.2546 21.0591 12.6964 21.8373 11.8821C22.8755 10.796 23.4578 9.33033 23.4578 7.80311C23.4578 6.2759 22.8755 4.81026 21.8373 3.7241C20.7992 2.63779 19.3888 2.01846 17.9121 2.00041ZM17.9121 9.96475C16.7877 9.96475 15.8789 8.96545 15.8789 7.80271C15.8789 6.63993 16.7911 5.64143 17.9121 5.64143C19.0343 5.64143 19.9461 6.63993 19.9461 7.80271C19.9486 8.96545 19.0373 9.96475 17.9121 9.96475ZM5.53031 2.29537H1V13.3329H5.58402C8.92493 13.3329 11.2522 10.8628 11.2522 7.81413V7.67194C11.2547 4.62415 8.82647 2.29537 5.53031 2.29537ZM7.75023 7.81413C7.75023 8.93521 6.98812 9.81687 5.70494 9.8561C5.03324 9.87814 4.42718 9.8561 4.42718 9.8561V5.7722C4.42718 5.7722 4.96768 5.75012 5.70494 5.7722C7.01497 5.81143 7.74938 6.69305 7.74938 7.81497L7.75023 7.81413Z" fill="white"/>
</svg>
