<svg width="24" height="25" viewBox="0 0 24 25" fill="none" xmlns="http://www.w3.org/2000/svg">
<path d="M12 23C18.0751 23 23 18.0751 23 12C23 5.92487 18.0751 1 12 1C5.92487 1 1 5.92487 1 12C1 18.0751 5.92487 23 12 23Z" fill="#242729"/>
<path d="M8.67326 4.84781C7.47905 5.6398 6.64341 6.8689 6.34612 8.27069C6.04882 9.67248 6.31363 11.135 7.08357 12.3435C7.85351 13.5521 9.06706 14.4101 10.4632 14.7331C11.8593 15.0561 13.3264 14.8182 14.5488 14.0705L22.5741 8.95788C22.0229 7.048 20.9652 5.32282 19.5133 3.96517C18.0613 2.60752 16.269 1.66797 14.3265 1.24609L8.67326 4.84781Z" fill="#FF9D7C"/>
<path d="M8.67326 4.84781C7.47905 5.6398 6.64341 6.8689 6.34612 8.27069C6.04882 9.67248 6.31363 11.135 7.08357 12.3435C7.85351 13.5521 9.06706 14.4101 10.4632 14.7331C11.8593 15.0561 13.3264 14.8182 14.5488 14.0705L22.5741 8.95788C22.0229 7.048 20.9652 5.32282 19.5133 3.96517C18.0613 2.60752 16.269 1.66797 14.3265 1.24609L8.67326 4.84781Z" fill="#FF6432"/>
<path d="M8.67326 4.84781C7.47905 5.6398 6.64341 6.8689 6.34612 8.27069C6.04882 9.67248 6.31363 11.135 7.08357 12.3435C7.85351 13.5521 9.06706 14.4101 10.4632 14.7331C11.8593 15.0561 13.3264 14.8182 14.5488 14.0705L22.5741 8.95788C22.0229 7.048 20.9652 5.32282 19.5133 3.96517C18.0613 2.60752 16.269 1.66797 14.3265 1.24609L8.67326 4.84781Z" fill="url(#paint0_radial_1458_29824)"/>
<path d="M8.67326 4.84781C7.47905 5.6398 6.64341 6.8689 6.34612 8.27069C6.04882 9.67248 6.31363 11.135 7.08357 12.3435C7.85351 13.5521 9.06706 14.4101 10.4632 14.7331C11.8593 15.0561 13.3264 14.8182 14.5488 14.0705L22.5741 8.95788C22.0229 7.048 20.9652 5.32282 19.5133 3.96517C18.0613 2.60752 16.269 1.66797 14.3265 1.24609L8.67326 4.84781Z" fill="url(#paint1_linear_1458_29824)"/>
<path d="M1.42432 15.0357L9.45274 9.92068C10.0584 9.53489 10.7341 9.27216 11.4412 9.14749C12.1484 9.02283 12.8732 9.03866 13.5742 9.19411C14.2752 9.34955 14.9388 9.64155 15.527 10.0534C16.1152 10.4653 16.6165 10.989 17.0023 11.5946C17.3881 12.2003 17.6508 12.876 17.7755 13.5831C17.9001 14.2903 17.8843 15.0151 17.7289 15.7161C17.5734 16.4171 17.2814 17.0807 16.8695 17.6689C16.4576 18.2571 15.9339 18.7584 15.3283 19.1442L9.66567 22.7514C7.7238 22.3282 5.93256 21.3876 4.4817 20.0293C3.03085 18.671 1.97442 16.9455 1.42432 15.0357Z" fill="#FFE66E"/>
<path d="M1.42432 15.0357L9.45274 9.92068C10.0584 9.53489 10.7341 9.27216 11.4412 9.14749C12.1484 9.02283 12.8732 9.03866 13.5742 9.19411C14.2752 9.34955 14.9388 9.64155 15.527 10.0534C16.1152 10.4653 16.6165 10.989 17.0023 11.5946C17.3881 12.2003 17.6508 12.876 17.7755 13.5831C17.9001 14.2903 17.8843 15.0151 17.7289 15.7161C17.5734 16.4171 17.2814 17.0807 16.8695 17.6689C16.4576 18.2571 15.9339 18.7584 15.3283 19.1442L9.66567 22.7514C7.7238 22.3282 5.93256 21.3876 4.4817 20.0293C3.03085 18.671 1.97442 16.9455 1.42432 15.0357Z" fill="url(#paint2_linear_1458_29824)"/>
<defs>
<radialGradient id="paint0_radial_1458_29824" cx="0" cy="0" r="1" gradientUnits="userSpaceOnUse" gradientTransform="translate(9.47155 16.3255) rotate(-34.8829) scale(13.1717 9.69336)">
<stop stop-color="#CC0700" stop-opacity="0.97"/>
<stop offset="0.067" stop-color="#CC0700" stop-opacity="0.962"/>
<stop offset="0.133" stop-color="#CC0700" stop-opacity="0.936"/>
<stop offset="0.2" stop-color="#CC0700" stop-opacity="0.891"/>
<stop offset="0.267" stop-color="#CC0700" stop-opacity="0.827"/>
<stop offset="0.333" stop-color="#CC0700" stop-opacity="0.745"/>
<stop offset="0.4" stop-color="#CC0700" stop-opacity="0.648"/>
<stop offset="0.467" stop-color="#CC0700" stop-opacity="0.541"/>
<stop offset="0.533" stop-color="#CC0700" stop-opacity="0.429"/>
<stop offset="0.6" stop-color="#CC0700" stop-opacity="0.322"/>
<stop offset="0.667" stop-color="#CC0700" stop-opacity="0.225"/>
<stop offset="0.733" stop-color="#CC0700" stop-opacity="0.143"/>
<stop offset="0.8" stop-color="#CC0700" stop-opacity="0.079"/>
<stop offset="0.867" stop-color="#CC0700" stop-opacity="0.034"/>
<stop offset="0.933" stop-color="#CC0700" stop-opacity="0.01"/>
<stop offset="1" stop-color="#CC0700" stop-opacity="0"/>
</radialGradient>
<linearGradient id="paint1_linear_1458_29824" x1="10.1779" y1="13.4938" x2="17.8072" y2="-4.92098" gradientUnits="userSpaceOnUse">
<stop stop-color="#FF8140" stop-opacity="0"/>
<stop offset="0.067" stop-color="#FF8140" stop-opacity="0.01"/>
<stop offset="0.133" stop-color="#FF8140" stop-opacity="0.036"/>
<stop offset="0.2" stop-color="#FF8140" stop-opacity="0.082"/>
<stop offset="0.267" stop-color="#FF8140" stop-opacity="0.147"/>
<stop offset="0.333" stop-color="#FF8140" stop-opacity="0.232"/>
<stop offset="0.4" stop-color="#FF8140" stop-opacity="0.332"/>
<stop offset="0.467" stop-color="#FF8140" stop-opacity="0.443"/>
<stop offset="0.533" stop-color="#FF8140" stop-opacity="0.557"/>
<stop offset="0.6" stop-color="#FF8140" stop-opacity="0.668"/>
<stop offset="0.667" stop-color="#FF8140" stop-opacity="0.768"/>
<stop offset="0.733" stop-color="#FF8140" stop-opacity="0.853"/>
<stop offset="0.8" stop-color="#FF8140" stop-opacity="0.918"/>
<stop offset="0.867" stop-color="#FF8140" stop-opacity="0.964"/>
<stop offset="0.933" stop-color="#FF8140" stop-opacity="0.991"/>
<stop offset="1" stop-color="#FF8140"/>
</linearGradient>
<linearGradient id="paint2_linear_1458_29824" x1="10.5056" y1="13.465" x2="3.25503" y2="23.8176" gradientUnits="userSpaceOnUse">
<stop stop-color="#FFD750" stop-opacity="0"/>
<stop offset="1" stop-color="#FFD750"/>
</linearGradient>
</defs>
</svg>
