<svg width="24" height="25" viewBox="0 0 24 25" fill="none" xmlns="http://www.w3.org/2000/svg">
<path d="M12.0001 23.4256C18.0342 23.4256 22.9258 18.534 22.9258 12.4999C22.9258 6.46581 18.0342 1.57422 12.0001 1.57422C5.96601 1.57422 1.07442 6.46581 1.07442 12.4999C1.07442 18.534 5.96601 23.4256 12.0001 23.4256Z" fill="#FC3F1D"/>
<path d="M15.9536 19.3581H13.5552V7.49577H12.4868C10.5283 7.49577 9.50244 8.47501 9.50244 9.93677C9.50244 11.5952 10.21 12.3636 11.6738 13.3428L12.8801 14.1558L9.41323 19.3561H6.83437L9.95455 14.7133C8.1603 13.432 7.15065 12.1811 7.15065 10.0706C7.15065 7.43292 8.9895 5.63867 12.4706 5.63867H15.9374V19.3541H15.9536V19.3581Z" fill="white"/>
</svg>
