<svg width="24" height="25" viewBox="0 0 24 25" fill="none" xmlns="http://www.w3.org/2000/svg">
<g clip-path="url(#clip0_1458_29776)">
<path d="M17.8125 12.5C17.8134 13.8678 17.3316 15.1921 16.4518 16.2395C15.5721 17.287 14.351 17.9903 13.0036 18.2257C11.6561 18.4611 10.2688 18.2134 9.08612 17.5262C7.90341 16.8391 7.00114 15.7566 6.53827 14.4694L3.21367 17.1291C4.24743 19.0942 5.90982 20.6563 7.93539 21.5659C9.96097 22.4755 12.2329 22.6802 14.3884 22.1473C16.544 21.6144 18.4588 20.3746 19.8272 18.6259C21.1955 16.8772 21.9385 14.7204 21.9375 12.5" fill="#00AC47"/>
<path d="M17.8125 12.5C17.8118 13.4248 17.59 14.3359 17.1658 15.1577C16.7416 15.9794 16.1272 16.6878 15.3738 17.224L18.6606 19.8534C19.6913 18.9255 20.5155 17.7915 21.08 16.5247C21.6445 15.258 21.9366 13.8868 21.9375 12.5" fill="#4285F4"/>
<path d="M6.1875 12.5002C6.18894 11.8283 6.30764 11.1618 6.53827 10.5307L3.21367 7.87109C2.45774 9.29698 2.0625 10.8863 2.0625 12.5002C2.0625 14.114 2.45774 15.7034 3.21367 17.1292L6.53827 14.4696C6.30764 13.8385 6.18894 13.1721 6.1875 12.5002Z" fill="#FFBA00"/>
<path d="M12 6.68751C13.2299 6.68785 14.4275 7.08088 15.4185 7.80936L18.4635 4.96738C17.3331 3.9928 15.9973 3.28608 14.5556 2.89995C13.114 2.51382 11.6037 2.45826 10.1376 2.73741C8.67144 3.01656 7.28728 3.62322 6.08837 4.51211C4.88947 5.401 3.90679 6.54916 3.21367 7.87093L6.53827 10.5306C6.94373 9.40661 7.68548 8.43477 8.66268 7.74717C9.63989 7.05957 10.8051 6.68959 12 6.68751Z" fill="#EA4435"/>
<path d="M21.9375 11.75V12.5L20.25 15.125H12.375V11H21.1875C21.3864 11 21.5772 11.079 21.7178 11.2197C21.8585 11.3603 21.9375 11.5511 21.9375 11.75Z" fill="#4285F4"/>
</g>
<defs>
<clipPath id="clip0_1458_29776">
<rect width="24" height="24" fill="white" transform="translate(0 0.5)"/>
</clipPath>
</defs>
</svg>
