<svg width="24" height="25" viewBox="0 0 24 25" fill="none" xmlns="http://www.w3.org/2000/svg">
<path d="M16.9448 14.4491C13.4009 14.467 12.8276 16.6654 12.6366 18.5243L12.5497 19.3465H11.8374L11.7506 18.5243C11.5595 16.6654 10.9689 14.467 7.54661 14.4491C6.97335 13.2336 6.73015 12.2506 6.73015 11.1424C6.73015 8.37199 8.93639 5.78021 12.2022 5.78021C15.4682 5.78021 17.6396 8.35402 17.6396 11.1603C17.6397 12.2506 17.5354 13.2336 16.9448 14.4491ZM12.1676 2.41992C6.78231 2.41992 2.36981 6.95992 2.36981 12.5186C2.36981 18.0953 6.78231 22.6352 12.1676 22.6352C17.6049 22.6352 22 18.0953 22 12.5186C22 6.95994 17.6049 2.41992 12.1676 2.41992Z" fill="#29B24A"/>
</svg>
