<svg width="24" height="25" viewBox="0 0 24 25" fill="none" xmlns="http://www.w3.org/2000/svg">
<path d="M18.4556 5.99609H5.54444C5.24376 5.99609 5 6.23985 5 6.54054V9.4495C5 9.75019 5.24376 9.9995 5.54444 9.9995H12.6222L5.40224 16.0395C5.14675 16.2611 5 16.5813 5 16.9195V19.4543C5 19.755 5.24376 19.9987 5.54444 19.9987H18.4556C18.7562 19.9987 19 19.755 19 19.4543V16.5395C19 16.2388 18.7562 15.9995 18.4556 15.9995H11.3778L18.5978 9.9595C18.8532 9.73791 19 9.41769 19 9.0795V6.54054C19 6.23985 18.7562 5.99609 18.4556 5.99609Z" fill="#3D39F4"/>
</svg>
