<svg width="25" height="24" viewBox="0 0 25 24" fill="none" xmlns="http://www.w3.org/2000/svg">
<path fill-rule="evenodd" clip-rule="evenodd" d="M12.5 3.25C10.567 3.25 9 4.817 9 6.75V8.25H7V6.75C7 3.71243 9.46243 1.25 12.5 1.25C15.5376 1.25 18 3.71243 18 6.75V8.25H16V6.75C16 4.817 14.433 3.25 12.5 3.25Z" fill="#EB502C"/>
<path fill-rule="evenodd" clip-rule="evenodd" d="M23.0666 22.4914C23.209 22.3272 23.2732 22.1092 23.2425 21.8939L21.1505 7.25H3.84953L1.75754 21.8939C1.7268 22.1092 1.79096 22.3272 1.93341 22.4914C2.07587 22.6557 2.28259 22.75 2.5 22.75H22.5C22.7174 22.75 22.9241 22.6557 23.0666 22.4914ZM14.5 11C14.5 11.7401 13.7469 12.5 12.5 12.5C11.2531 12.5 10.5 11.7401 10.5 11H8.5C8.5 13.2599 10.6155 14.5 12.5 14.5C14.3845 14.5 16.5 13.2599 16.5 11H14.5Z" fill="#EB502C"/>
</svg>
