<svg width="24" height="25" viewBox="0 0 24 25" fill="none" xmlns="http://www.w3.org/2000/svg">
<path d="M20.0212 8.90752C18.7843 7.86828 17.1167 7.5701 15.4448 7.84875C13.633 8.15072 11.7498 9.13326 10.1915 10.6915C8.63326 12.2498 7.65072 14.133 7.34875 15.9448C7.12314 17.2985 7.27567 18.6493 7.8935 19.771C8.37715 19.6933 8.77352 19.6165 9.01304 19.5644C9.17058 19.5125 9.33093 19.4638 9.49369 19.4142C10.1921 19.2017 10.9351 18.9757 11.691 18.4368C12.5968 17.791 13.5466 16.6571 14.1554 14.4249C15.1504 10.7763 18.1506 9.28414 19.6171 8.98059C19.7194 8.9539 19.8546 8.92841 20.0212 8.90752Z" fill="#EB502C"/>
<path d="M21.1747 10.3586C20.4898 10.3424 20.0903 10.4053 19.9932 10.4326C19.9745 10.4379 19.9556 10.4425 19.9366 10.4463C18.8751 10.6586 16.4148 11.8406 15.6023 14.8196C14.9159 17.3366 13.7878 18.7839 12.5616 19.6581C11.5838 20.3552 10.5555 20.664 9.85078 20.8755C9.70104 20.9205 9.56591 20.9611 9.44896 21.0001C9.42449 21.0082 9.39962 21.0151 9.37444 21.0207C9.27247 21.0433 9.14207 21.0705 8.98828 21.1005C10.2241 22.1326 11.887 22.4283 13.5542 22.1505C15.366 21.8485 17.2492 20.866 18.8075 19.3077C20.3658 17.7494 21.3483 15.8662 21.6503 14.0544C21.8672 12.7528 21.7345 11.4538 21.1747 10.3586Z" fill="#EB502C"/>
<path d="M4.93313 4.50582C4.90574 4.40877 4.84287 4.00922 4.85907 3.32429C5.95427 2.7645 7.25328 2.63182 8.55489 2.84875C10.3667 3.15072 12.2499 4.13326 13.8082 5.69153C14.07 5.95331 14.3155 6.22427 14.5443 6.50251C12.8679 6.90554 11.2134 7.77701 9.77568 9.0293C9.62783 8.98346 9.47599 8.93924 9.32004 8.89671C6.34109 8.08426 5.15906 5.62394 4.94676 4.56242C4.94295 4.54338 4.9384 4.5245 4.93313 4.50582Z" fill="#EB502C"/>
<path d="M8.56409 10.2365C5.17799 9.14823 3.77488 6.29924 3.48157 4.88214C3.45488 4.77987 3.42939 4.64463 3.4085 4.47803C2.36926 5.71495 2.07108 7.38254 2.34973 9.05443C2.6517 10.8662 3.63424 12.7494 5.1925 14.3077C5.45422 14.5694 5.72511 14.8149 6.00329 15.0436C6.41002 13.3522 7.29362 11.6832 8.56409 10.2365Z" fill="#EB502C"/>
</svg>
