<svg width="15" height="15" viewBox="0 0 15 15" fill="none" xmlns="http://www.w3.org/2000/svg">
<path d="M8.79573 1.08313L10.1156 3.74466C10.2956 4.11515 10.7755 4.47053 11.1805 4.53858L13.5727 4.93932C15.1025 5.19639 15.4625 6.31544 14.3601 7.41937L12.5003 9.29453C12.1854 9.6121 12.0129 10.2246 12.1104 10.6631L12.6428 12.9844C13.0628 14.8217 12.0954 15.5325 10.483 14.5722L8.24079 13.2339C7.83583 12.9919 7.16841 12.9919 6.75595 13.2339L4.5137 14.5722C2.90888 15.5325 1.93399 14.8142 2.35394 12.9844L2.88638 10.6631C2.98387 10.2246 2.81139 9.6121 2.49642 9.29453L0.636629 7.41937C-0.45825 6.31544 -0.105789 5.19639 1.42404 4.93932L3.81628 4.53858C4.21373 4.47053 4.69368 4.11515 4.87366 3.74466L6.19351 1.08313C6.91344 -0.361045 8.08331 -0.361045 8.79573 1.08313Z" fill="#FFA800"/>
</svg>
