<svg width="26" height="26" viewBox="0 0 26 26" fill="none" xmlns="http://www.w3.org/2000/svg">
<path d="M15.1595 2.30522L17.3593 6.74109C17.6593 7.35859 18.4592 7.95088 19.1341 8.06429L23.1212 8.73219C25.6709 9.16066 26.2708 11.0257 24.4335 12.8656L21.3339 15.9909C20.8089 16.5202 20.5215 17.5409 20.6839 18.2718L21.5713 22.1406C22.2713 25.2029 20.6589 26.3875 17.9717 24.787L14.2346 22.5565C13.5597 22.1532 12.4473 22.1532 11.7599 22.5565L8.02284 24.787C5.34813 26.3875 3.72331 25.1903 4.42323 22.1406L5.31063 18.2718C5.47312 17.5409 5.18565 16.5202 4.66071 15.9909L1.56105 12.8656C-0.26375 11.0257 0.323686 9.16066 2.8734 8.73219L6.86046 8.06429C7.52289 7.95088 8.3228 7.35859 8.62277 6.74109L10.8225 2.30522C12.0224 -0.101741 13.9722 -0.101741 15.1595 2.30522Z" fill="#494949"/>
</svg>
