<svg width="25" height="24" viewBox="0 0 25 24" fill="none" xmlns="http://www.w3.org/2000/svg">
<path fill-rule="evenodd" clip-rule="evenodd" d="M4.30445 10.7697C9.39807 8.55044 12.7946 7.08741 14.4941 6.38054C19.3464 4.36229 20.3547 4.0117 21.0119 4.00012C21.1564 3.99758 21.4796 4.0334 21.6889 4.20327C21.8657 4.3467 21.9143 4.54046 21.9376 4.67645C21.9609 4.81243 21.9899 5.12222 21.9668 5.36428C21.7039 8.12711 20.5661 14.8318 19.9873 17.9262C19.7423 19.2355 19.2601 19.6746 18.7932 19.7175C17.7785 19.8109 17.008 19.047 16.0253 18.4028C14.4874 17.3947 13.6187 16.7672 12.1259 15.7835C10.4009 14.6467 11.5192 14.0219 12.5023 13.0008C12.7596 12.7335 17.2302 8.66715 17.3168 8.29827C17.3276 8.25213 17.3376 8.08016 17.2355 7.98936C17.1333 7.89855 16.9825 7.9296 16.8737 7.9543C16.7195 7.9893 14.2628 9.61308 9.50364 12.8256C8.80632 13.3045 8.17471 13.5378 7.60881 13.5255C6.98494 13.5121 5.78488 13.1728 4.89276 12.8828C3.79854 12.5271 2.92887 12.3391 3.0046 11.735C3.04404 11.4203 3.47733 11.0986 4.30445 10.7697Z" fill="#49BEFF"/>
</svg>
