<svg width="30" height="30" viewBox="0 0 30 30" fill="none" xmlns="http://www.w3.org/2000/svg">
<path fill-rule="evenodd" clip-rule="evenodd" d="M8.13019 14.1798C11.9504 12.5154 14.4978 11.4181 15.7724 10.8879C19.4117 9.37426 20.1679 9.11131 20.6608 9.10263C20.7692 9.10072 21.0115 9.12759 21.1686 9.25499C21.3011 9.36256 21.3376 9.50788 21.3551 9.60987C21.3725 9.71187 21.3943 9.94421 21.377 10.1258C21.1798 12.1979 20.3264 17.2264 19.8923 19.5472C19.7086 20.5292 19.3469 20.8585 18.9967 20.8907C18.2357 20.9607 17.6579 20.3878 16.9208 19.9046C15.7674 19.1486 15.1159 18.6779 13.9963 17.9402C12.7025 17.0876 13.5412 16.619 14.2786 15.8531C14.4715 15.6527 17.8245 12.6029 17.8894 12.3262C17.8975 12.2916 17.9051 12.1627 17.8284 12.0946C17.7518 12.0265 17.6387 12.0497 17.5571 12.0683C17.4414 12.0945 15.5989 13.3123 12.0296 15.7218C11.5066 16.0809 11.0329 16.2559 10.6085 16.2467C10.1406 16.2366 9.24052 15.9821 8.57143 15.7646C7.75076 15.4979 7.09851 15.3568 7.1553 14.9038C7.18489 14.6678 7.50985 14.4265 8.13019 14.1798Z" fill="#49BEFF"/>
</svg>
