<svg width="35" height="34" viewBox="0 0 35 34" fill="none" xmlns="http://www.w3.org/2000/svg">
<path fill-rule="evenodd" clip-rule="evenodd" d="M10.6302 16.1802C14.4504 14.5158 16.9978 13.4185 18.2724 12.8883C21.9117 11.3746 22.6679 11.1117 23.1608 11.103C23.2692 11.1011 23.5115 11.128 23.6686 11.2554C23.8011 11.363 23.8376 11.5083 23.8551 11.6103C23.8725 11.7123 23.8943 11.9446 23.877 12.1261C23.6798 14.1983 22.8264 19.2268 22.3923 21.5476C22.2086 22.5296 21.8469 22.8589 21.4967 22.8911C20.7357 22.9611 20.1579 22.3882 19.4208 21.905C18.2674 21.149 17.6159 20.6783 16.4963 19.9406C15.2025 19.088 16.0412 18.6193 16.7786 17.8535C16.9715 17.6531 20.3245 14.6033 20.3894 14.3266C20.3975 14.292 20.4051 14.163 20.3284 14.0949C20.2518 14.0268 20.1387 14.0501 20.0571 14.0687C19.9414 14.0949 18.0989 15.3127 14.5296 17.7221C14.0066 18.0813 13.5329 18.2562 13.1085 18.2471C12.6406 18.237 11.7405 17.9825 11.0714 17.765C10.2508 17.4983 9.59851 17.3572 9.6553 16.9042C9.68489 16.6682 10.0098 16.4269 10.6302 16.1802Z" fill="white"/>
</svg>
