<svg width="24" height="24" viewBox="0 0 24 24" fill="none" xmlns="http://www.w3.org/2000/svg">
<path fill-rule="evenodd" clip-rule="evenodd" d="M21.262 8.91747C21.262 8.91747 21.2617 8.91708 22.0066 8.25C22.7516 7.58292 22.7512 7.58241 22.7512 7.58241L22.7492 7.58021L22.7451 7.57569L22.732 7.56131C22.7211 7.54938 22.7059 7.53282 22.6865 7.51195C22.6475 7.47022 22.5917 7.41118 22.5197 7.3373C22.3758 7.18963 22.1671 6.98227 21.9004 6.73514C21.3678 6.24179 20.5984 5.58503 19.646 4.92721C17.7604 3.62471 15.0591 2.25 12.0066 2.25C8.95422 2.25 6.25292 3.62471 4.36727 4.92721C3.41492 5.58503 2.64553 6.24179 2.11296 6.73514C1.84618 6.98227 1.63748 7.18963 1.4936 7.3373C1.42162 7.41118 1.36576 7.47022 1.32685 7.51195C1.3074 7.53282 1.29217 7.54938 1.28128 7.56131L1.2682 7.57569L1.26412 7.58021L1.2627 7.5818C1.2627 7.5818 1.26169 7.58292 2.00668 8.25C2.75166 8.91708 2.75131 8.91747 2.75131 8.91747L2.7581 8.91001L2.78975 8.87574C2.81913 8.84424 2.86485 8.79586 2.92608 8.73301C3.04861 8.60725 3.23285 8.42398 3.47209 8.20236C3.95157 7.75821 4.64665 7.16497 5.50395 6.57279C7.23759 5.37529 9.53628 4.25 12.0066 4.25C14.477 4.25 16.7757 5.37529 18.5094 6.57279C19.3667 7.16497 20.0617 7.75821 20.5412 8.20236C20.7805 8.42398 20.9647 8.60725 21.0872 8.73301C21.1485 8.79586 21.1942 8.84424 21.2236 8.87574L21.2552 8.91001L21.262 8.91747Z" fill="#EB502C"/>
<path d="M10.0049 14C10.0049 15.1046 10.9003 16 12.0049 16C13.1095 16 14.0049 15.1046 14.0049 14C14.0049 12.8954 13.1095 12 12.0049 12C10.9003 12 10.0049 12.8954 10.0049 14Z" fill="#EB502C"/>
<path fill-rule="evenodd" clip-rule="evenodd" d="M11.999 6.25C9.32776 6.25 7.04743 7.56594 5.29231 9.10033C3.53321 10.6382 2.23387 12.4535 1.50799 13.5934L1.24902 14L1.50799 14.4066C2.23387 15.5465 3.53321 17.3618 5.29231 18.8997C7.04743 20.4341 9.32776 21.75 11.999 21.75C14.6703 21.75 16.9506 20.4341 18.7057 18.8997C20.4648 17.3618 21.7642 15.5465 22.4901 14.4066L22.749 14L22.4901 13.5934C21.7642 12.4535 20.4648 10.6382 18.7057 9.10033C16.9506 7.56593 14.6703 6.25 11.999 6.25ZM12.0049 18C9.79574 18 8.00488 16.2091 8.00488 14C8.00488 11.7909 9.79574 10 12.0049 10C14.214 10 16.0049 11.7909 16.0049 14C16.0049 16.2091 14.214 18 12.0049 18Z" fill="#EB502C"/>
</svg>
