<svg width="28" height="27" viewBox="0 0 28 27" fill="none" xmlns="http://www.w3.org/2000/svg">
<path d="M0.727843 12.9691C0.727843 6.96286 0.727843 3.95978 2.59373 2.09389C4.45962 0.227997 7.46271 0.227997 13.4689 0.227997H14.5307C20.5369 0.227997 23.54 0.227997 25.4059 2.09389C27.2718 3.95978 27.2718 6.96286 27.2718 12.9691V14.0308C27.2718 20.0371 27.2718 23.0401 25.4059 24.9061C23.54 26.7719 20.5369 26.7719 14.5307 26.7719H13.4689C7.46271 26.7719 4.45962 26.7719 2.59373 24.9061C0.727843 23.0401 0.727843 20.0371 0.727843 14.0308V12.9691Z" fill="white"/>
<path d="M14.8518 19.3509C8.802 19.3509 5.35134 15.2034 5.20756 8.30194H8.238C8.33754 13.3674 10.5716 15.513 12.3412 15.9554V8.30194H15.1948V12.6706C16.9423 12.4826 18.778 10.4918 19.3973 8.30194H22.2509C21.7753 11.0006 19.7845 12.9914 18.3688 13.8098C19.7845 14.4734 22.0519 16.2098 22.9146 19.3509H19.7734C19.0988 17.2495 17.4178 15.6236 15.1948 15.4024V19.3509H14.8518Z" fill="#0077FF"/>
</svg>
