<svg width="24" height="24" viewBox="0 0 24 24" fill="none" xmlns="http://www.w3.org/2000/svg">
<path fill-rule="evenodd" clip-rule="evenodd" d="M16.31 13.7351C16.0926 13.6269 15.0268 13.1056 14.8284 13.033C14.6299 12.9611 14.4855 12.9255 14.3403 13.1419C14.1959 13.3568 13.7808 13.8432 13.6546 13.987C13.5276 14.1315 13.4014 14.1489 13.1847 14.0414C12.9681 13.9325 12.2692 13.7053 11.4412 12.9706C10.797 12.3985 10.3615 11.692 10.2353 11.4757C10.1091 11.26 10.2214 11.1432 10.3301 11.0357C10.4279 10.9391 10.5468 10.7838 10.6555 10.6582C10.7642 10.5318 10.7999 10.4418 10.8722 10.2973C10.9451 10.1536 10.9086 10.028 10.8539 9.9198C10.7999 9.81162 10.3666 8.74945 10.1857 8.31746C10.0099 7.89709 9.83114 7.95445 9.69837 7.94719C9.57143 7.94138 9.42698 7.93993 9.28254 7.93993C9.13809 7.93993 8.90319 7.99366 8.70476 8.21001C8.5056 8.42564 7.94606 8.94765 7.94606 10.0098C7.94606 11.0713 8.72227 12.0972 8.83097 12.2416C8.93966 12.3854 10.3593 14.5649 12.534 15.4993C13.052 15.7215 13.4554 15.8543 13.7698 15.9531C14.2892 16.1179 14.762 16.0946 15.1355 16.0387C15.5513 15.977 16.418 15.5167 16.5989 15.0129C16.7791 14.509 16.7791 14.077 16.7251 13.987C16.6711 13.897 16.5267 13.8432 16.3093 13.7351H16.31ZM12.3546 19.1098H12.3516C11.06 19.1101 9.79202 18.7645 8.68068 18.1094L8.41806 17.954L5.68819 18.667L6.41698 16.0184L6.24554 15.7469C5.52342 14.6029 5.14126 13.279 5.14324 11.928C5.1447 7.97115 8.37939 4.75195 12.3575 4.75195C14.2834 4.75195 16.0941 5.49976 17.4554 6.85597C18.1268 7.52143 18.659 8.31279 19.0211 9.18426C19.3833 10.0557 19.5682 10.99 19.5651 11.9331C19.5637 15.8899 16.329 19.1098 12.3546 19.1098ZM18.4913 5.82574C17.6875 5.02052 16.7311 4.38207 15.6776 3.94737C14.6241 3.51267 13.4943 3.29038 12.3538 3.29336C7.57254 3.29336 3.67982 7.16671 3.67836 11.9273C3.67763 13.449 4.07668 14.9345 4.83611 16.2435L3.60541 20.718L8.20431 19.5171C9.4765 20.2069 10.9021 20.5684 12.3509 20.5684H12.3546C17.1358 20.5684 21.0286 16.6951 21.03 11.9338C21.0335 10.7992 20.811 9.6752 20.3752 8.62677C19.9394 7.57834 19.2991 6.62631 18.4913 5.82574Z" fill="#1BC100"/>
</svg>
