<svg width="30" height="30" viewBox="0 0 30 30" fill="none" xmlns="http://www.w3.org/2000/svg">
<path fill-rule="evenodd" clip-rule="evenodd" d="M19.1751 16.3059C18.9645 16.2011 17.932 15.6961 17.7398 15.6257C17.5476 15.5561 17.4076 15.5216 17.267 15.7312C17.1271 15.9394 16.7249 16.4107 16.6027 16.5499C16.4797 16.6899 16.3574 16.7068 16.1475 16.6027C15.9376 16.4972 15.2606 16.277 14.4585 15.5652C13.8344 15.011 13.4125 14.3267 13.2903 14.1171C13.168 13.9082 13.2768 13.7949 13.3821 13.6908C13.4768 13.5973 13.592 13.4468 13.6973 13.3251C13.8026 13.2027 13.8373 13.1155 13.9072 12.9756C13.9779 12.8363 13.9426 12.7146 13.8896 12.6098C13.8373 12.505 13.4175 11.476 13.2422 11.0576C13.0719 10.6503 12.8987 10.7059 12.7701 10.6989C12.6471 10.6932 12.5072 10.6918 12.3673 10.6918C12.2273 10.6918 11.9998 10.7439 11.8075 10.9535C11.6146 11.1624 11.0726 11.6681 11.0726 12.697C11.0726 13.7253 11.8245 14.7191 11.9298 14.8591C12.0351 14.9984 13.4104 17.1098 15.5171 18.015C16.0189 18.2302 16.4097 18.3589 16.7143 18.4546C17.2175 18.6142 17.6755 18.5917 18.0373 18.5375C18.4401 18.4778 19.2797 18.0318 19.455 17.5437C19.6296 17.0556 19.6296 16.6371 19.5773 16.5499C19.525 16.4627 19.385 16.4107 19.1744 16.3059H19.1751ZM15.3433 21.5127H15.3405C14.0892 21.5129 12.8608 21.1781 11.7842 20.5435L11.5298 20.393L8.88525 21.0836L9.59127 18.5179L9.42519 18.2548C8.72563 17.1466 8.35541 15.864 8.35733 14.5553C8.35874 10.7221 11.4924 7.60346 15.3461 7.60346C17.2119 7.60346 18.966 8.3279 20.2847 9.64174C20.9351 10.2864 21.4507 11.053 21.8015 11.8973C22.1523 12.7415 22.3315 13.6466 22.3285 14.5602C22.3271 18.3934 19.1935 21.5127 15.3433 21.5127ZM21.2882 8.6437C20.5096 7.86364 19.5831 7.24514 18.5625 6.82403C17.5419 6.40291 16.4474 6.18756 15.3426 6.19046C10.7107 6.19046 6.93964 9.94276 6.93823 14.5545C6.93752 16.0287 7.3241 17.4678 8.0598 18.7359L6.86755 23.0706L11.3227 21.9072C12.5552 22.5755 13.9363 22.9256 15.3398 22.9257H15.3433C19.9752 22.9257 23.7462 19.1734 23.7476 14.5609C23.7511 13.4618 23.5355 12.3729 23.1133 11.3572C22.6912 10.3415 22.0708 9.41925 21.2882 8.6437Z" fill="#1BC100"/>
</svg>
