<svg width="35" height="34" viewBox="0 0 35 34" fill="none" xmlns="http://www.w3.org/2000/svg">
<path fill-rule="evenodd" clip-rule="evenodd" d="M22.2318 18.4803C21.9931 18.3616 20.8229 17.7892 20.6051 17.7095C20.3872 17.6306 20.2286 17.5916 20.0692 17.8291C19.9106 18.065 19.4549 18.5991 19.3163 18.7569C19.177 18.9156 19.0384 18.9347 18.8005 18.8167C18.5626 18.6972 17.7953 18.4477 16.8862 17.641C16.179 17.0129 15.7008 16.2373 15.5623 15.9997C15.4237 15.763 15.547 15.6346 15.6664 15.5167C15.7737 15.4106 15.9043 15.2401 16.0236 15.1022C16.143 14.9635 16.1822 14.8646 16.2615 14.706C16.3416 14.5482 16.3015 14.4103 16.2415 14.2915C16.1822 14.1727 15.7064 13.0065 15.5078 12.5323C15.3148 12.0707 15.1185 12.1337 14.9728 12.1257C14.8334 12.1194 14.6748 12.1178 14.5162 12.1178C14.3576 12.1178 14.0997 12.1768 13.8819 12.4143C13.6632 12.651 13.0489 13.2242 13.0489 14.3903C13.0489 15.5557 13.9011 16.682 14.0204 16.8407C14.1398 16.9985 15.6984 19.3914 18.0861 20.4173C18.6547 20.6613 19.0977 20.8071 19.4429 20.9155C20.0132 21.0965 20.5322 21.071 20.9423 21.0096C21.3988 20.9418 22.3503 20.4365 22.549 19.8833C22.7468 19.3301 22.7468 18.8558 22.6875 18.7569C22.6283 18.6581 22.4697 18.5991 22.231 18.4803H22.2318ZM17.889 24.3814H17.8858C16.4677 24.3816 15.0756 24.0023 13.8554 23.283L13.5671 23.1124L10.5699 23.8951L11.3701 20.9873L11.1819 20.6891C10.389 19.4332 9.96945 17.9796 9.97161 16.4963C9.97321 12.152 13.5246 8.61763 17.8922 8.61763C20.0068 8.61763 21.9947 9.43866 23.4893 10.9277C24.2265 11.6583 24.8108 12.5271 25.2084 13.4839C25.606 14.4407 25.809 15.4665 25.8057 16.5019C25.8041 20.8462 22.2526 24.3814 17.889 24.3814ZM24.6266 9.79656C23.7442 8.9125 22.6941 8.21153 21.5374 7.73427C20.3808 7.257 19.1404 7.01294 17.8882 7.01622C12.6388 7.01622 8.3649 11.2688 8.3633 16.4955C8.3625 18.1663 8.80062 19.7972 9.63441 21.2344L8.2832 26.147L13.3324 24.8286C14.7292 25.5859 16.2944 25.9828 17.885 25.9828H17.889C23.1385 25.9828 27.4124 21.7302 27.414 16.5027C27.4178 15.257 27.1735 14.023 26.6951 12.8719C26.2166 11.7208 25.5136 10.6755 24.6266 9.79656Z" fill="white"/>
</svg>
