<svg width="23" height="23" viewBox="0 0 23 23" fill="none" xmlns="http://www.w3.org/2000/svg">
<path d="M11.5001 22.4256C17.5342 22.4256 22.4258 17.534 22.4258 11.4999C22.4258 5.46581 17.5342 0.574219 11.5001 0.574219C5.46606 0.574219 0.574463 5.46581 0.574463 11.4999C0.574463 17.534 5.46606 22.4256 11.5001 22.4256Z" fill="#FC3F1D"/>
<path d="M15.4537 18.3581H13.0553V6.49577H11.9869C10.0284 6.49577 9.00254 7.47501 9.00254 8.93677C9.00254 10.5952 9.7101 11.3636 11.1739 12.3428L12.3802 13.1558L8.91333 18.3561H6.33447L9.45465 13.7133C7.6604 12.432 6.65075 11.1811 6.65075 9.07058C6.65075 6.43292 8.4896 4.63867 11.9707 4.63867H15.4375V18.3541H15.4537V18.3581Z" fill="white"/>
</svg>
