<svg width="33" height="32" viewBox="0 0 33 32" fill="none" xmlns="http://www.w3.org/2000/svg">
<path fill-rule="evenodd" clip-rule="evenodd" d="M24.0428 10.4061C24.8138 10.6038 25.4217 11.1826 25.6292 11.9167C26.0148 13.2579 25.9999 16.0532 25.9999 16.0532C25.9999 16.0532 25.9999 18.8344 25.6292 20.1755C25.4217 20.9097 24.8138 21.4885 24.0428 21.6861C22.6342 22.0391 17 22.0391 17 22.0391C17 22.0391 11.3805 22.0391 9.95716 21.672C9.18616 21.4744 8.57825 20.8955 8.37067 20.1614C8 18.8344 8 16.0391 8 16.0391C8 16.0391 8 13.2579 8.37067 11.9167C8.57825 11.1826 9.20098 10.5897 9.95716 10.392C11.3657 10.0391 17 10.0391 17 10.0391C17 10.0391 22.6342 10.0391 24.0428 10.4061ZM19.8912 16.0391L15.2059 18.6085V13.4697L19.8912 16.0391Z" fill="white"/>
</svg>
