<svg width="313" height="62" viewBox="0 0 313 62" fill="none" xmlns="http://www.w3.org/2000/svg">
<path d="M25.4053 55.1986L17.2861 44.3H7.3335V55.1986H0V17.8014H18.8576C26.7149 17.8014 33.2103 23.0904 33.2103 31.0507C33.2103 36.2863 29.8578 40.6671 25.3006 42.8575L34.5198 55.1986H25.4053ZM25.8768 31.0507C25.8768 27.3644 22.9434 24.6932 18.8576 24.6932H7.3335V37.3014H18.8576C22.891 37.3014 25.8768 34.5767 25.8768 31.0507Z" fill="white"/>
<path d="M64.1808 43.7123H40.3993C41.185 47.5589 44.5375 50.1233 48.9376 50.1233C52.0805 50.1233 54.5948 48.9479 55.9568 47.0247H63.395C61.4045 52.474 55.7996 56 48.6233 56C39.6136 56 32.8563 49.963 32.8563 41.8959C32.8563 33.7219 39.5612 27.6849 48.6233 27.6849C57.5806 27.6849 64.2855 33.4014 64.2855 41.8959C64.2855 42.4836 64.2855 43.1247 64.1808 43.7123ZM40.3993 39.9726H56.7425C56.0092 36.1795 52.9186 33.7219 48.6233 33.7219C44.3803 33.7219 41.185 36.2329 40.3993 39.9726Z" fill="white"/>
<path d="M74.5545 45.2616V55.1986H67.221V17.8014H74.5545V38.4767H77.8022L86.8119 28.4863H96.4502L84.4547 41.8425L97.4978 55.1986H87.5452L77.7498 45.2616H74.5545Z" fill="white"/>
<path d="M96.1384 41.8959C96.1384 33.7219 102.948 27.6849 112.167 27.6849C121.491 27.6849 128.249 33.4014 128.249 41.8959C128.249 50.2301 121.491 56 112.167 56C103 56 96.1384 49.963 96.1384 41.8959ZM103.472 41.8959C103.472 46.063 107.191 49.0548 112.167 49.0548C117.406 49.0548 120.915 46.063 120.915 41.8959C120.915 37.6219 117.406 34.5767 112.167 34.5767C107.139 34.5767 103.472 37.6219 103.472 41.8959Z" fill="white"/>
<path d="M141.748 28.4863H149.501V35.3781H141.748V55.1986H134.415V35.3781H128.757V28.4863H134.415C134.415 20.9534 139.496 17 149.501 17V23.037C144.367 23.037 141.748 24.8 141.748 28.4863Z" fill="white"/>
<path d="M181.895 43.7123H158.114C158.899 47.5589 162.252 50.1233 166.652 50.1233C169.795 50.1233 172.309 48.9479 173.671 47.0247H181.109C179.119 52.474 173.514 56 166.338 56C157.328 56 150.571 49.963 150.571 41.8959C150.571 33.7219 157.276 27.6849 166.338 27.6849C175.295 27.6849 182 33.4014 182 41.8959C182 42.4836 182 43.1247 181.895 43.7123ZM158.114 39.9726H174.457C173.724 36.1795 170.633 33.7219 166.338 33.7219C162.095 33.7219 158.899 36.2329 158.114 39.9726Z" fill="white"/>
<path d="M195.186 27.538C195.774 27.538 196.283 27.6313 196.712 27.818C197.141 28.0047 197.501 28.266 197.79 28.602C198.089 28.938 198.308 29.3393 198.448 29.806C198.597 30.2633 198.672 30.7673 198.672 31.318C198.672 31.8687 198.597 32.3773 198.448 32.844C198.308 33.3013 198.089 33.698 197.79 34.034C197.501 34.3607 197.137 34.6173 196.698 34.804C196.259 34.9907 195.746 35.084 195.158 35.084C194.57 35.084 194.057 34.9907 193.618 34.804C193.189 34.6173 192.825 34.3607 192.526 34.034C192.237 33.698 192.017 33.3013 191.868 32.844C191.728 32.3773 191.658 31.8687 191.658 31.318C191.658 30.7673 191.728 30.2633 191.868 29.806C192.017 29.3393 192.237 28.938 192.526 28.602C192.825 28.266 193.193 28.0047 193.632 27.818C194.071 27.6313 194.589 27.538 195.186 27.538ZM195.158 34.034C195.559 34.034 195.905 33.964 196.194 33.824C196.493 33.684 196.735 33.4927 196.922 33.25C197.118 32.998 197.258 32.7087 197.342 32.382C197.435 32.0553 197.482 31.7007 197.482 31.318C197.482 30.9447 197.435 30.5947 197.342 30.268C197.258 29.932 197.118 29.6427 196.922 29.4C196.735 29.148 196.493 28.952 196.194 28.812C195.905 28.672 195.559 28.602 195.158 28.602C194.757 28.602 194.411 28.672 194.122 28.812C193.833 28.952 193.59 29.148 193.394 29.4C193.207 29.6427 193.067 29.932 192.974 30.268C192.89 30.5947 192.848 30.9447 192.848 31.318C192.848 31.7007 192.89 32.0553 192.974 32.382C193.067 32.7087 193.207 32.998 193.394 33.25C193.59 33.4927 193.833 33.684 194.122 33.824C194.411 33.964 194.757 34.034 195.158 34.034ZM203.218 25.284H204.408V27.552C205.612 27.5707 206.555 27.902 207.236 28.546C207.927 29.19 208.272 30.1327 208.272 31.374C208.272 31.9993 208.179 32.5407 207.992 32.998C207.806 33.4553 207.54 33.838 207.194 34.146C206.858 34.4447 206.452 34.6733 205.976 34.832C205.5 34.9813 204.978 35.0653 204.408 35.084V37.52H203.218V35.084C202.649 35.0653 202.126 34.9813 201.65 34.832C201.184 34.6733 200.778 34.4447 200.432 34.146C200.096 33.838 199.835 33.4553 199.648 32.998C199.462 32.5407 199.368 31.9993 199.368 31.374C199.368 30.1233 199.709 29.1807 200.39 28.546C201.072 27.902 202.014 27.5707 203.218 27.552V25.284ZM204.408 34.09C205.314 34.0807 205.986 33.8473 206.424 33.39C206.863 32.9233 207.082 32.2373 207.082 31.332C207.082 30.4267 206.854 29.7407 206.396 29.274C205.948 28.8073 205.286 28.574 204.408 28.574V34.09ZM203.218 28.574C202.341 28.574 201.678 28.8073 201.23 29.274C200.782 29.7407 200.558 30.4267 200.558 31.332C200.558 32.2373 200.778 32.9233 201.216 33.39C201.655 33.8473 202.322 34.0807 203.218 34.09V28.574ZM210.41 35H209.248V27.622H210.438V33.278C210.503 33.1473 210.592 33.0073 210.704 32.858C210.816 32.6993 210.904 32.578 210.97 32.494L214.54 27.622H215.716V35H214.526V29.344C214.451 29.484 214.367 29.6193 214.274 29.75C214.19 29.8713 214.11 29.9787 214.036 30.072L210.41 35ZM221.788 33.964V27.622H222.992V33.964H223.958V37.268H222.796V35H217.028V27.622H218.218V33.964H221.788ZM225.805 35H224.643V27.622H225.833V33.278C225.899 33.1473 225.987 33.0073 226.099 32.858C226.211 32.6993 226.3 32.578 226.365 32.494L229.935 27.622H231.111V35H229.921V29.344C229.847 29.484 229.763 29.6193 229.669 29.75C229.585 29.8713 229.506 29.9787 229.431 30.072L225.805 35ZM237.281 34.062C237.122 34.2767 236.94 34.4493 236.735 34.58C236.53 34.7107 236.315 34.8133 236.091 34.888C235.876 34.9627 235.657 35.014 235.433 35.042C235.218 35.07 235.004 35.084 234.789 35.084C234.444 35.084 234.117 35.042 233.809 34.958C233.501 34.874 233.221 34.7387 232.969 34.552C232.726 34.3653 232.53 34.132 232.381 33.852C232.241 33.572 232.171 33.2547 232.171 32.9C232.171 32.48 232.246 32.13 232.395 31.85C232.554 31.5607 232.764 31.3273 233.025 31.15C233.286 30.9727 233.585 30.8513 233.921 30.786C234.266 30.7113 234.63 30.674 235.013 30.674H237.183C237.183 30.0487 237.048 29.554 236.777 29.19C236.506 28.8167 236.049 28.6207 235.405 28.602C235.013 28.602 234.668 28.6673 234.369 28.798C234.07 28.9287 233.865 29.1433 233.753 29.442H232.479C232.544 29.106 232.675 28.8213 232.871 28.588C233.067 28.3453 233.3 28.1493 233.571 28C233.842 27.8413 234.136 27.7247 234.453 27.65C234.77 27.5753 235.088 27.538 235.405 27.538C235.956 27.538 236.418 27.6313 236.791 27.818C237.174 27.9953 237.482 28.2333 237.715 28.532C237.948 28.8213 238.112 29.176 238.205 29.596C238.298 30.016 238.345 30.4873 238.345 31.01V35H237.351L237.281 34.062ZM235.881 31.668C235.657 31.668 235.396 31.6727 235.097 31.682C234.808 31.682 234.528 31.71 234.257 31.766C233.986 31.822 233.767 31.9387 233.599 32.116C233.44 32.2933 233.361 32.5267 233.361 32.816C233.361 33.0307 233.403 33.2127 233.487 33.362C233.571 33.5113 233.683 33.6373 233.823 33.74C233.972 33.8427 234.14 33.9173 234.327 33.964C234.514 34.0107 234.705 34.034 234.901 34.034C235.601 34.034 236.152 33.866 236.553 33.53C236.964 33.1847 237.174 32.6853 237.183 32.032V31.668H235.881ZM240.315 31.542C240.361 30.87 240.394 30.2167 240.413 29.582C240.441 28.9473 240.459 28.294 240.469 27.622H245.593V35H244.403V28.672H241.631L241.505 31.57C241.486 31.9433 241.444 32.3633 241.379 32.83C241.313 33.2967 241.178 33.7213 240.973 34.104C240.814 34.3747 240.599 34.594 240.329 34.762C240.058 34.93 239.745 35.014 239.391 35.014H238.957V33.964C239.33 33.964 239.629 33.8053 239.853 33.488C239.983 33.3013 240.086 33.0307 240.161 32.676C240.235 32.3213 240.287 31.9433 240.315 31.542ZM246.903 27.622H248.121V30.436H249.745C250.165 30.436 250.552 30.4687 250.907 30.534C251.261 30.59 251.569 30.7113 251.831 30.898C252.083 31.0847 252.274 31.3227 252.405 31.612C252.545 31.892 252.615 32.242 252.615 32.662C252.605 33.082 252.531 33.432 252.391 33.712C252.251 33.9827 252.073 34.2113 251.859 34.398C251.607 34.6127 251.289 34.7667 250.907 34.86C250.533 34.9533 250.151 35 249.759 35H246.903V27.622ZM248.821 33.964C249.175 33.964 249.53 33.9593 249.885 33.95C250.239 33.9313 250.547 33.8567 250.809 33.726C250.986 33.6513 251.126 33.5253 251.229 33.348C251.341 33.1613 251.401 32.9467 251.411 32.704C251.411 32.4147 251.35 32.186 251.229 32.018C251.117 31.85 250.967 31.7287 250.781 31.654C250.603 31.57 250.403 31.5187 250.179 31.5C249.955 31.4813 249.735 31.472 249.521 31.472H248.121V33.964H248.821ZM253.603 35V27.622H254.793V30.856H258.489V27.622H259.679V35H258.489V31.906H254.793V35H253.603ZM261 27.622H262.218V30.436H263.548C263.968 30.436 264.35 30.4687 264.696 30.534C265.05 30.59 265.363 30.7113 265.634 30.898C265.886 31.0847 266.077 31.3227 266.208 31.612C266.348 31.892 266.418 32.242 266.418 32.662C266.399 33.082 266.32 33.432 266.18 33.712C266.049 33.9827 265.876 34.2113 265.662 34.398C265.4 34.6127 265.083 34.7667 264.71 34.86C264.336 34.9533 263.954 35 263.562 35H261V27.622ZM267.44 35V27.622H268.63V35H267.44ZM262.61 33.964C262.964 33.964 263.319 33.9593 263.674 33.95C264.038 33.9313 264.35 33.8567 264.612 33.726C264.789 33.6513 264.929 33.5253 265.032 33.348C265.144 33.1613 265.204 32.9467 265.214 32.704C265.214 32.4147 265.153 32.186 265.032 32.018C264.92 31.85 264.77 31.7287 264.584 31.654C264.406 31.57 264.206 31.5187 263.982 31.5C263.758 31.4813 263.538 31.472 263.324 31.472H262.218V33.964H262.61ZM273.288 25.732C273.68 25.732 273.992 25.6573 274.226 25.508C274.468 25.3587 274.59 25.0973 274.59 24.724H275.682C275.663 25.396 275.439 25.886 275.01 26.194C274.59 26.502 274.011 26.656 273.274 26.656C272.536 26.656 271.958 26.502 271.538 26.194C271.127 25.886 270.912 25.396 270.894 24.724H271.986C271.995 25.0973 272.116 25.3587 272.35 25.508C272.583 25.6573 272.896 25.732 273.288 25.732ZM271.104 35H269.942V27.622H271.132V33.278C271.197 33.1473 271.286 33.0073 271.398 32.858C271.51 32.6993 271.598 32.578 271.664 32.494L275.234 27.622H276.41V35H275.22V29.344C275.145 29.484 275.061 29.6193 274.968 29.75C274.884 29.8713 274.804 29.9787 274.73 30.072L271.104 35ZM195.088 53.084C194.5 53.084 193.991 52.9907 193.562 52.804C193.133 52.6173 192.778 52.356 192.498 52.02C192.218 51.684 192.008 51.2873 191.868 50.83C191.728 50.3727 191.658 49.8733 191.658 49.332C191.658 48.8093 191.733 48.3193 191.882 47.862C192.031 47.3953 192.251 46.994 192.54 46.658C192.829 46.3127 193.193 46.042 193.632 45.846C194.071 45.6407 194.603 45.538 195.228 45.538C195.601 45.538 195.933 45.58 196.222 45.664C196.511 45.7387 196.782 45.8647 197.034 46.042C197.295 46.21 197.519 46.434 197.706 46.714C197.893 46.994 198.028 47.3347 198.112 47.736H196.894C196.754 47.3253 196.53 47.0313 196.222 46.854C195.923 46.6767 195.569 46.5927 195.158 46.602C194.757 46.602 194.402 46.6813 194.094 46.84C193.795 46.9893 193.553 47.19 193.366 47.442C193.189 47.694 193.058 47.988 192.974 48.324C192.89 48.6507 192.848 48.9867 192.848 49.332C192.848 49.696 192.89 50.0413 192.974 50.368C193.067 50.6947 193.203 50.984 193.38 51.236C193.567 51.4787 193.805 51.6747 194.094 51.824C194.383 51.964 194.729 52.034 195.13 52.034C195.326 52.034 195.517 52.0153 195.704 51.978C195.9 51.9407 196.077 51.88 196.236 51.796C196.404 51.7027 196.549 51.5813 196.67 51.432C196.791 51.2827 196.88 51.1007 196.936 50.886H198.168C198.093 51.2687 197.958 51.6 197.762 51.88C197.575 52.1507 197.342 52.3793 197.062 52.566C196.782 52.7433 196.474 52.874 196.138 52.958C195.802 53.042 195.452 53.084 195.088 53.084ZM200.04 49.752C200.068 50.0787 200.134 50.382 200.236 50.662C200.348 50.9327 200.498 51.1707 200.684 51.376C200.871 51.5813 201.1 51.7447 201.37 51.866C201.65 51.978 201.972 52.034 202.336 52.034C202.514 52.034 202.696 52.02 202.882 51.992C203.078 51.9547 203.26 51.8987 203.428 51.824C203.596 51.74 203.746 51.6327 203.876 51.502C204.007 51.3713 204.105 51.2127 204.17 51.026H205.388C205.304 51.3807 205.16 51.6887 204.954 51.95C204.758 52.2113 204.52 52.426 204.24 52.594C203.97 52.762 203.666 52.888 203.33 52.972C202.994 53.0467 202.654 53.084 202.308 53.084C201.72 53.084 201.207 52.9907 200.768 52.804C200.339 52.6173 199.98 52.3607 199.69 52.034C199.401 51.698 199.186 51.3013 199.046 50.844C198.906 50.3773 198.836 49.8687 198.836 49.318C198.836 48.7673 198.911 48.2633 199.06 47.806C199.219 47.3393 199.443 46.938 199.732 46.602C200.022 46.266 200.376 46.0047 200.796 45.818C201.216 45.6313 201.716 45.538 202.294 45.538C202.882 45.538 203.391 45.6547 203.82 45.888C204.25 46.1213 204.595 46.4293 204.856 46.812C205.118 47.1853 205.3 47.5913 205.402 48.03C205.514 48.4687 205.561 48.8747 205.542 49.248C205.542 49.332 205.538 49.416 205.528 49.5C205.528 49.584 205.524 49.668 205.514 49.752H200.04ZM204.338 48.716C204.32 48.0907 204.124 47.582 203.75 47.19C203.377 46.798 202.878 46.602 202.252 46.602C201.907 46.602 201.604 46.658 201.342 46.77C201.081 46.882 200.862 47.036 200.684 47.232C200.507 47.428 200.367 47.6567 200.264 47.918C200.162 48.17 200.096 48.436 200.068 48.716H204.338ZM207.772 55.66H206.582V45.622H207.716L207.772 46.756C208.024 46.3547 208.364 46.056 208.794 45.86C209.232 45.6547 209.704 45.5473 210.208 45.538C210.777 45.538 211.258 45.636 211.65 45.832C212.051 46.0187 212.382 46.2847 212.644 46.63C212.914 46.966 213.115 47.3673 213.246 47.834C213.376 48.2913 213.442 48.786 213.442 49.318C213.442 49.8593 213.376 50.3587 213.246 50.816C213.115 51.2733 212.914 51.67 212.644 52.006C212.373 52.342 212.032 52.608 211.622 52.804C211.211 52.9907 210.721 53.084 210.152 53.084C209.592 53.084 209.116 52.9953 208.724 52.818C208.332 52.6407 208.014 52.4073 207.772 52.118V55.66ZM210.054 52.034C210.455 52.034 210.791 51.964 211.062 51.824C211.342 51.6747 211.566 51.4787 211.734 51.236C211.911 50.984 212.037 50.6947 212.112 50.368C212.196 50.0413 212.242 49.6913 212.252 49.318C212.252 48.9447 212.21 48.5947 212.126 48.268C212.051 47.932 211.925 47.6427 211.748 47.4C211.57 47.1573 211.337 46.966 211.048 46.826C210.768 46.6767 210.427 46.602 210.026 46.602C209.55 46.602 209.139 46.7327 208.794 46.994C208.448 47.246 208.187 47.568 208.01 47.96C207.907 48.1747 207.837 48.3987 207.8 48.632C207.762 48.856 207.744 49.0893 207.744 49.332C207.744 49.612 207.762 49.8733 207.8 50.116C207.837 50.3493 207.907 50.5733 208.01 50.788C208.187 51.1427 208.444 51.4413 208.78 51.684C209.125 51.9173 209.55 52.034 210.054 52.034ZM214.416 45.622H217.272C217.748 45.622 218.154 45.6547 218.49 45.72C218.836 45.7853 219.125 45.902 219.358 46.07C219.564 46.21 219.722 46.3967 219.834 46.63C219.956 46.8633 220.016 47.1387 220.016 47.456C220.016 48.1933 219.685 48.7207 219.022 49.038C219.526 49.15 219.89 49.3693 220.114 49.696C220.338 50.0227 220.45 50.396 220.45 50.816C220.441 51.208 220.376 51.53 220.254 51.782C220.133 52.0247 219.96 52.2393 219.736 52.426C219.522 52.6033 219.256 52.7433 218.938 52.846C218.621 52.9487 218.262 53 217.86 53H214.416V45.622ZM215.634 46.672V48.772H216.656C216.89 48.772 217.128 48.7673 217.37 48.758C217.613 48.7393 217.828 48.6973 218.014 48.632C218.248 48.5573 218.444 48.436 218.602 48.268C218.761 48.1 218.845 47.8993 218.854 47.666C218.854 47.3953 218.794 47.1993 218.672 47.078C218.56 46.9473 218.42 46.854 218.252 46.798C218.084 46.7327 217.902 46.6953 217.706 46.686C217.51 46.6767 217.328 46.672 217.16 46.672H215.634ZM215.634 51.964H217.58C217.795 51.964 218 51.95 218.196 51.922C218.402 51.894 218.579 51.8427 218.728 51.768C218.878 51.684 218.999 51.572 219.092 51.432C219.186 51.292 219.237 51.1147 219.246 50.9C219.246 50.62 219.181 50.4007 219.05 50.242C218.92 50.074 218.742 49.9527 218.518 49.878C218.332 49.822 218.122 49.7893 217.888 49.78C217.655 49.7707 217.412 49.766 217.16 49.766L215.634 49.78V51.964ZM222.674 53H221.512V45.622H222.702V51.278C222.768 51.1473 222.856 51.0073 222.968 50.858C223.08 50.6993 223.169 50.578 223.234 50.494L226.804 45.622H227.98V53H226.79V47.344C226.716 47.484 226.632 47.6193 226.538 47.75C226.454 47.8713 226.375 47.9787 226.3 48.072L222.674 53ZM232.442 53.084C231.854 53.084 231.346 52.9907 230.916 52.804C230.487 52.6173 230.132 52.356 229.852 52.02C229.572 51.684 229.362 51.2873 229.222 50.83C229.082 50.3727 229.012 49.8733 229.012 49.332C229.012 48.8093 229.087 48.3193 229.236 47.862C229.386 47.3953 229.605 46.994 229.894 46.658C230.184 46.3127 230.548 46.042 230.986 45.846C231.425 45.6407 231.957 45.538 232.582 45.538C232.956 45.538 233.287 45.58 233.576 45.664C233.866 45.7387 234.136 45.8647 234.388 46.042C234.65 46.21 234.874 46.434 235.06 46.714C235.247 46.994 235.382 47.3347 235.466 47.736H234.248C234.108 47.3253 233.884 47.0313 233.576 46.854C233.278 46.6767 232.923 46.5927 232.512 46.602C232.111 46.602 231.756 46.6813 231.448 46.84C231.15 46.9893 230.907 47.19 230.72 47.442C230.543 47.694 230.412 47.988 230.328 48.324C230.244 48.6507 230.202 48.9867 230.202 49.332C230.202 49.696 230.244 50.0413 230.328 50.368C230.422 50.6947 230.557 50.984 230.734 51.236C230.921 51.4787 231.159 51.6747 231.448 51.824C231.738 51.964 232.083 52.034 232.484 52.034C232.68 52.034 232.872 52.0153 233.058 51.978C233.254 51.9407 233.432 51.88 233.59 51.796C233.758 51.7027 233.903 51.5813 234.024 51.432C234.146 51.2827 234.234 51.1007 234.29 50.886H235.522C235.448 51.2687 235.312 51.6 235.116 51.88C234.93 52.1507 234.696 52.3793 234.416 52.566C234.136 52.7433 233.828 52.874 233.492 52.958C233.156 53.042 232.806 53.084 232.442 53.084ZM236.471 53V45.622H237.661V48.856H241.357V45.622H242.547V53H241.357V49.906H237.661V53H236.471ZM243.868 45.622H245.086V48.436H246.416C246.836 48.436 247.218 48.4687 247.564 48.534C247.918 48.59 248.231 48.7113 248.502 48.898C248.754 49.0847 248.945 49.3227 249.076 49.612C249.216 49.892 249.286 50.242 249.286 50.662C249.267 51.082 249.188 51.432 249.048 51.712C248.917 51.9827 248.744 52.2113 248.53 52.398C248.268 52.6127 247.951 52.7667 247.578 52.86C247.204 52.9533 246.822 53 246.43 53H243.868V45.622ZM250.308 53V45.622H251.498V53H250.308ZM245.478 51.964C245.832 51.964 246.187 51.9593 246.542 51.95C246.906 51.9313 247.218 51.8567 247.48 51.726C247.657 51.6513 247.797 51.5253 247.9 51.348C248.012 51.1613 248.072 50.9467 248.082 50.704C248.082 50.4147 248.021 50.186 247.9 50.018C247.788 49.85 247.638 49.7287 247.452 49.654C247.274 49.57 247.074 49.5187 246.85 49.5C246.626 49.4813 246.406 49.472 246.192 49.472H245.086V51.964H245.478ZM256.156 43.732C256.548 43.732 256.86 43.6573 257.094 43.508C257.336 43.3587 257.458 43.0973 257.458 42.724H258.55C258.531 43.396 258.307 43.886 257.878 44.194C257.458 44.502 256.879 44.656 256.142 44.656C255.404 44.656 254.826 44.502 254.406 44.194C253.995 43.886 253.78 43.396 253.762 42.724H254.854C254.863 43.0973 254.984 43.3587 255.218 43.508C255.451 43.6573 255.764 43.732 256.156 43.732ZM253.972 53H252.81V45.622H254V51.278C254.065 51.1473 254.154 51.0073 254.266 50.858C254.378 50.6993 254.466 50.578 254.532 50.494L258.102 45.622H259.278V53H258.088V47.344C258.013 47.484 257.929 47.6193 257.836 47.75C257.752 47.8713 257.672 47.9787 257.598 48.072L253.972 53ZM268.563 51.964V45.622H269.767V51.964H270.733V55.268H269.571V53H263.803V45.622H264.993V51.964H268.563ZM272.343 49.752C272.371 50.0787 272.436 50.382 272.539 50.662C272.651 50.9327 272.8 51.1707 272.987 51.376C273.173 51.5813 273.402 51.7447 273.673 51.866C273.953 51.978 274.275 52.034 274.639 52.034C274.816 52.034 274.998 52.02 275.185 51.992C275.381 51.9547 275.563 51.8987 275.731 51.824C275.899 51.74 276.048 51.6327 276.179 51.502C276.309 51.3713 276.407 51.2127 276.473 51.026H277.691C277.607 51.3807 277.462 51.6887 277.257 51.95C277.061 52.2113 276.823 52.426 276.543 52.594C276.272 52.762 275.969 52.888 275.633 52.972C275.297 53.0467 274.956 53.084 274.611 53.084C274.023 53.084 273.509 52.9907 273.071 52.804C272.641 52.6173 272.282 52.3607 271.993 52.034C271.703 51.698 271.489 51.3013 271.349 50.844C271.209 50.3773 271.139 49.8687 271.139 49.318C271.139 48.7673 271.213 48.2633 271.363 47.806C271.521 47.3393 271.745 46.938 272.035 46.602C272.324 46.266 272.679 46.0047 273.099 45.818C273.519 45.6313 274.018 45.538 274.597 45.538C275.185 45.538 275.693 45.6547 276.123 45.888C276.552 46.1213 276.897 46.4293 277.159 46.812C277.42 47.1853 277.602 47.5913 277.705 48.03C277.817 48.4687 277.863 48.8747 277.845 49.248C277.845 49.332 277.84 49.416 277.831 49.5C277.831 49.584 277.826 49.668 277.817 49.752H272.343ZM276.641 48.716C276.622 48.0907 276.426 47.582 276.053 47.19C275.679 46.798 275.18 46.602 274.555 46.602C274.209 46.602 273.906 46.658 273.645 46.77C273.383 46.882 273.164 47.036 272.987 47.232C272.809 47.428 272.669 47.6567 272.567 47.918C272.464 48.17 272.399 48.436 272.371 48.716H276.641ZM278.884 53V45.622H280.074V48.856H283.77V45.622H284.96V53H283.77V49.906H280.074V53H278.884ZM291.727 45.622V46.672H289.193V53H288.003V46.672H285.469V45.622H291.727ZM293.419 55.66H292.229V45.622H293.363L293.419 46.756C293.671 46.3547 294.012 46.056 294.441 45.86C294.88 45.6547 295.351 45.5473 295.855 45.538C296.424 45.538 296.905 45.636 297.297 45.832C297.698 46.0187 298.03 46.2847 298.291 46.63C298.562 46.966 298.762 47.3673 298.893 47.834C299.024 48.2913 299.089 48.786 299.089 49.318C299.089 49.8593 299.024 50.3587 298.893 50.816C298.762 51.2733 298.562 51.67 298.291 52.006C298.02 52.342 297.68 52.608 297.269 52.804C296.858 52.9907 296.368 53.084 295.799 53.084C295.239 53.084 294.763 52.9953 294.371 52.818C293.979 52.6407 293.662 52.4073 293.419 52.118V55.66ZM295.701 52.034C296.102 52.034 296.438 51.964 296.709 51.824C296.989 51.6747 297.213 51.4787 297.381 51.236C297.558 50.984 297.684 50.6947 297.759 50.368C297.843 50.0413 297.89 49.6913 297.899 49.318C297.899 48.9447 297.857 48.5947 297.773 48.268C297.698 47.932 297.572 47.6427 297.395 47.4C297.218 47.1573 296.984 46.966 296.695 46.826C296.415 46.6767 296.074 46.602 295.673 46.602C295.197 46.602 294.786 46.7327 294.441 46.994C294.096 47.246 293.834 47.568 293.657 47.96C293.554 48.1747 293.484 48.3987 293.447 48.632C293.41 48.856 293.391 49.0893 293.391 49.332C293.391 49.612 293.41 49.8733 293.447 50.116C293.484 50.3493 293.554 50.5733 293.657 50.788C293.834 51.1427 294.091 51.4413 294.427 51.684C294.772 51.9173 295.197 52.034 295.701 52.034Z" fill="white"/>
<path d="M118.162 6.32911C118.162 3.79747 116.775 1.05485 116.081 0C119.054 1.05485 125 4.17722 125 8.22785C125 13.2911 120.541 14.8734 118.757 18.3544C117.33 21.1392 117.766 23.9451 118.162 25C116.775 23.8397 114 20.8861 114 18.3544C114 15.1899 118.162 9.49367 118.162 6.32911Z" fill="#EB502C"/>
<path d="M107.649 12.3038C107.649 10.5823 106.766 8.7173 106.324 8C108.216 8.7173 112 10.8405 112 13.5949C112 17.038 109.162 18.1139 108.027 20.481C107.119 22.3747 107.396 24.2827 107.649 25C106.766 24.211 105 22.2025 105 20.481C105 18.3291 107.649 14.4557 107.649 12.3038Z" fill="#EB502C"/>
</svg>
