<svg width="228" height="46" viewBox="0 0 228 46" fill="none" xmlns="http://www.w3.org/2000/svg">
<path d="M16.4716 35.7881L11.2075 28.722H4.75468V35.7881H0V11.5415H12.2263C17.3206 11.5415 21.5319 14.9707 21.5319 20.1318C21.5319 23.5263 19.3584 26.3666 16.4037 27.7868L22.381 35.7881H16.4716ZM16.7772 20.1318C16.7772 17.7417 14.8754 16.0098 12.2263 16.0098H4.75468V24.1844H12.2263C14.8414 24.1844 16.7772 22.4179 16.7772 20.1318Z" fill="white"/>
<path d="M41.6117 28.341H26.1929C26.7024 30.8349 28.8759 32.4975 31.7288 32.4975C33.7665 32.4975 35.3967 31.7355 36.2797 30.4885H41.1023C39.8117 34.0216 36.1778 36.3077 31.525 36.3077C25.6835 36.3077 21.3024 32.3936 21.3024 27.1633C21.3024 21.8637 25.6496 17.9496 31.525 17.9496C37.3325 17.9496 41.6796 21.6558 41.6796 27.1633C41.6796 27.5443 41.6796 27.9599 41.6117 28.341ZM26.1929 25.9163H36.7891C36.3136 23.457 34.3099 21.8637 31.525 21.8637C28.7741 21.8637 26.7024 23.4916 26.1929 25.9163Z" fill="white"/>
<path d="M48.3375 29.3455V35.7881H43.5828V11.5415H48.3375V24.9464H50.4432L56.2846 18.4691H62.5336L54.7563 27.1286L63.2129 35.7881H56.7601L50.4092 29.3455H48.3375Z" fill="white"/>
<path d="M62.3315 27.1633C62.3315 21.8637 66.7465 17.9496 72.7238 17.9496C78.7691 17.9496 83.1502 21.6558 83.1502 27.1633C83.1502 32.5668 78.7691 36.3077 72.7238 36.3077C66.7805 36.3077 62.3315 32.3936 62.3315 27.1633ZM67.0861 27.1633C67.0861 29.865 69.4975 31.8048 72.7238 31.8048C76.12 31.8048 78.3955 29.865 78.3955 27.1633C78.3955 24.3922 76.12 22.4179 72.7238 22.4179C69.4635 22.4179 67.0861 24.3922 67.0861 27.1633Z" fill="white"/>
<path d="M91.9026 18.4691H96.929V22.9374H91.9026V35.7881H87.1479V22.9374H83.48V18.4691H87.1479C87.1479 13.5852 90.4422 11.022 96.929 11.022V14.9361C93.6007 14.9361 91.9026 16.0791 91.9026 18.4691Z" fill="white"/>
<path d="M117.932 28.341H102.513C103.023 30.8349 105.196 32.4975 108.049 32.4975C110.087 32.4975 111.717 31.7355 112.6 30.4885H117.423C116.132 34.0216 112.498 36.3077 107.845 36.3077C102.004 36.3077 97.6228 32.3936 97.6228 27.1633C97.6228 21.8637 101.97 17.9496 107.845 17.9496C113.653 17.9496 118 21.6558 118 27.1633C118 27.5443 118 27.9599 117.932 28.341ZM102.513 25.9163H113.109C112.634 23.457 110.63 21.8637 107.845 21.8637C105.094 21.8637 103.023 23.4916 102.513 25.9163Z" fill="white"/>
<path d="M76.6106 4.10349C76.6106 2.46209 75.7111 0.683915 75.2613 0C77.1889 0.683915 81.0439 2.7083 81.0439 5.33454C81.0439 8.61733 78.1526 9.64321 76.9961 11.9001C76.0709 13.7057 76.3536 15.5249 76.6106 16.2088C75.7111 15.4565 73.9121 13.5415 73.9121 11.9001C73.9121 9.84838 76.6106 6.15524 76.6106 4.10349Z" fill="#EB502C"/>
<path d="M69.7942 7.97719C69.7942 6.86104 69.2217 5.65188 68.9355 5.18681C70.1621 5.65188 72.6154 7.02846 72.6154 8.8143C72.6154 11.0466 70.7754 11.7442 70.0395 13.2789C69.4507 14.5067 69.6306 15.7437 69.7942 16.2088C69.2217 15.6972 68.0769 14.395 68.0769 13.2789C68.0769 11.8837 69.7942 9.37237 69.7942 7.97719Z" fill="#EB502C"/>
<path d="M132.588 13.604C133.092 13.604 133.528 13.684 133.896 13.844C134.264 14.004 134.572 14.228 134.82 14.516C135.076 14.804 135.264 15.148 135.384 15.548C135.512 15.94 135.576 16.372 135.576 16.844C135.576 17.316 135.512 17.752 135.384 18.152C135.264 18.544 135.076 18.884 134.82 19.172C134.572 19.452 134.26 19.672 133.884 19.832C133.508 19.992 133.068 20.072 132.564 20.072C132.06 20.072 131.62 19.992 131.244 19.832C130.876 19.672 130.564 19.452 130.308 19.172C130.06 18.884 129.872 18.544 129.744 18.152C129.624 17.752 129.564 17.316 129.564 16.844C129.564 16.372 129.624 15.94 129.744 15.548C129.872 15.148 130.06 14.804 130.308 14.516C130.564 14.228 130.88 14.004 131.256 13.844C131.632 13.684 132.076 13.604 132.588 13.604ZM132.564 19.172C132.908 19.172 133.204 19.112 133.452 18.992C133.708 18.872 133.916 18.708 134.076 18.5C134.244 18.284 134.364 18.036 134.436 17.756C134.516 17.476 134.556 17.172 134.556 16.844C134.556 16.524 134.516 16.224 134.436 15.944C134.364 15.656 134.244 15.408 134.076 15.2C133.916 14.984 133.708 14.816 133.452 14.696C133.204 14.576 132.908 14.516 132.564 14.516C132.22 14.516 131.924 14.576 131.676 14.696C131.428 14.816 131.22 14.984 131.052 15.2C130.892 15.408 130.772 15.656 130.692 15.944C130.62 16.224 130.584 16.524 130.584 16.844C130.584 17.172 130.62 17.476 130.692 17.756C130.772 18.036 130.892 18.284 131.052 18.5C131.22 18.708 131.428 18.872 131.676 18.992C131.924 19.112 132.22 19.172 132.564 19.172ZM139.473 11.672H140.493V13.616C141.525 13.632 142.333 13.916 142.917 14.468C143.509 15.02 143.805 15.828 143.805 16.892C143.805 17.428 143.725 17.892 143.565 18.284C143.405 18.676 143.177 19.004 142.881 19.268C142.593 19.524 142.245 19.72 141.837 19.856C141.429 19.984 140.981 20.056 140.493 20.072V22.16H139.473V20.072C138.985 20.056 138.537 19.984 138.129 19.856C137.729 19.72 137.381 19.524 137.085 19.268C136.797 19.004 136.573 18.676 136.413 18.284C136.253 17.892 136.173 17.428 136.173 16.892C136.173 15.82 136.465 15.012 137.049 14.468C137.633 13.916 138.441 13.632 139.473 13.616V11.672ZM140.493 19.22C141.269 19.212 141.845 19.012 142.221 18.62C142.597 18.22 142.785 17.632 142.785 16.856C142.785 16.08 142.589 15.492 142.197 15.092C141.813 14.692 141.245 14.492 140.493 14.492V19.22ZM139.473 14.492C138.721 14.492 138.153 14.692 137.769 15.092C137.385 15.492 137.193 16.08 137.193 16.856C137.193 17.632 137.381 18.22 137.757 18.62C138.133 19.012 138.705 19.212 139.473 19.22V14.492ZM145.637 20H144.641V13.676H145.661V18.524C145.717 18.412 145.793 18.292 145.889 18.164C145.985 18.028 146.061 17.924 146.117 17.852L149.177 13.676H150.185V20H149.165V15.152C149.101 15.272 149.029 15.388 148.949 15.5C148.877 15.604 148.809 15.696 148.745 15.776L145.637 20ZM155.389 19.112V13.676H156.421V19.112H157.249V21.944H156.253V20H151.309V13.676H152.329V19.112H155.389ZM158.833 20H157.837V13.676H158.857V18.524C158.913 18.412 158.989 18.292 159.085 18.164C159.181 18.028 159.257 17.924 159.313 17.852L162.373 13.676H163.381V20H162.361V15.152C162.297 15.272 162.225 15.388 162.145 15.5C162.073 15.604 162.005 15.696 161.941 15.776L158.833 20ZM168.67 19.196C168.534 19.38 168.378 19.528 168.202 19.64C168.026 19.752 167.842 19.84 167.65 19.904C167.466 19.968 167.278 20.012 167.086 20.036C166.902 20.06 166.718 20.072 166.534 20.072C166.238 20.072 165.958 20.036 165.694 19.964C165.43 19.892 165.19 19.776 164.974 19.616C164.766 19.456 164.598 19.256 164.47 19.016C164.35 18.776 164.29 18.504 164.29 18.2C164.29 17.84 164.354 17.54 164.482 17.3C164.618 17.052 164.798 16.852 165.022 16.7C165.246 16.548 165.502 16.444 165.79 16.388C166.086 16.324 166.398 16.292 166.726 16.292H168.586C168.586 15.756 168.47 15.332 168.238 15.02C168.006 14.7 167.614 14.532 167.062 14.516C166.726 14.516 166.43 14.572 166.174 14.684C165.918 14.796 165.742 14.98 165.646 15.236H164.554C164.61 14.948 164.722 14.704 164.89 14.504C165.058 14.296 165.258 14.128 165.49 14C165.722 13.864 165.974 13.764 166.246 13.7C166.518 13.636 166.79 13.604 167.062 13.604C167.534 13.604 167.93 13.684 168.25 13.844C168.578 13.996 168.842 14.2 169.042 14.456C169.242 14.704 169.382 15.008 169.462 15.368C169.542 15.728 169.582 16.132 169.582 16.58V20H168.73L168.67 19.196ZM167.47 17.144C167.278 17.144 167.054 17.148 166.798 17.156C166.55 17.156 166.31 17.18 166.078 17.228C165.846 17.276 165.658 17.376 165.514 17.528C165.378 17.68 165.31 17.88 165.31 18.128C165.31 18.312 165.346 18.468 165.418 18.596C165.49 18.724 165.586 18.832 165.706 18.92C165.834 19.008 165.978 19.072 166.138 19.112C166.298 19.152 166.462 19.172 166.63 19.172C167.23 19.172 167.702 19.028 168.046 18.74C168.398 18.444 168.578 18.016 168.586 17.456V17.144H167.47ZM171.27 17.036C171.31 16.46 171.338 15.9 171.354 15.356C171.378 14.812 171.394 14.252 171.402 13.676H175.794V20H174.774V14.576H172.398L172.29 17.06C172.274 17.38 172.238 17.74 172.182 18.14C172.126 18.54 172.01 18.904 171.834 19.232C171.698 19.464 171.514 19.652 171.282 19.796C171.05 19.94 170.782 20.012 170.478 20.012H170.106V19.112C170.426 19.112 170.682 18.976 170.874 18.704C170.986 18.544 171.074 18.312 171.138 18.008C171.202 17.704 171.246 17.38 171.27 17.036ZM176.917 13.676H177.961V16.088H179.353C179.713 16.088 180.045 16.116 180.349 16.172C180.653 16.22 180.917 16.324 181.141 16.484C181.357 16.644 181.521 16.848 181.633 17.096C181.753 17.336 181.813 17.636 181.813 17.996C181.805 18.356 181.741 18.656 181.621 18.896C181.501 19.128 181.349 19.324 181.165 19.484C180.949 19.668 180.677 19.8 180.349 19.88C180.029 19.96 179.701 20 179.365 20H176.917V13.676ZM178.561 19.112C178.865 19.112 179.169 19.108 179.473 19.1C179.777 19.084 180.041 19.02 180.265 18.908C180.417 18.844 180.537 18.736 180.625 18.584C180.721 18.424 180.773 18.24 180.781 18.032C180.781 17.784 180.729 17.588 180.625 17.444C180.529 17.3 180.401 17.196 180.241 17.132C180.089 17.06 179.917 17.016 179.725 17C179.533 16.984 179.345 16.976 179.161 16.976H177.961V19.112H178.561ZM182.659 20V13.676H183.679V16.448H186.847V13.676H187.867V20H186.847V17.348H183.679V20H182.659ZM189 13.676H190.044V16.088H191.184C191.544 16.088 191.872 16.116 192.168 16.172C192.472 16.22 192.74 16.324 192.972 16.484C193.188 16.644 193.352 16.848 193.464 17.096C193.584 17.336 193.644 17.636 193.644 17.996C193.628 18.356 193.56 18.656 193.44 18.896C193.328 19.128 193.18 19.324 192.996 19.484C192.772 19.668 192.5 19.8 192.18 19.88C191.86 19.96 191.532 20 191.196 20H189V13.676ZM194.52 20V13.676H195.54V20H194.52ZM190.38 19.112C190.684 19.112 190.988 19.108 191.292 19.1C191.604 19.084 191.872 19.02 192.096 18.908C192.248 18.844 192.368 18.736 192.456 18.584C192.552 18.424 192.604 18.24 192.612 18.032C192.612 17.784 192.56 17.588 192.456 17.444C192.36 17.3 192.232 17.196 192.072 17.132C191.92 17.06 191.748 17.016 191.556 17C191.364 16.984 191.176 16.976 190.992 16.976H190.044V19.112H190.38ZM199.532 12.056C199.868 12.056 200.136 11.992 200.336 11.864C200.544 11.736 200.648 11.512 200.648 11.192H201.584C201.568 11.768 201.376 12.188 201.008 12.452C200.648 12.716 200.152 12.848 199.52 12.848C198.888 12.848 198.392 12.716 198.032 12.452C197.68 12.188 197.496 11.768 197.48 11.192H198.416C198.424 11.512 198.528 11.736 198.728 11.864C198.928 11.992 199.196 12.056 199.532 12.056ZM197.66 20H196.664V13.676H197.684V18.524C197.74 18.412 197.816 18.292 197.912 18.164C198.008 18.028 198.084 17.924 198.14 17.852L201.2 13.676H202.208V20H201.188V15.152C201.124 15.272 201.052 15.388 200.972 15.5C200.9 15.604 200.832 15.696 200.768 15.776L197.66 20ZM132.504 35.072C132 35.072 131.564 34.992 131.196 34.832C130.828 34.672 130.524 34.448 130.284 34.16C130.044 33.872 129.864 33.532 129.744 33.14C129.624 32.748 129.564 32.32 129.564 31.856C129.564 31.408 129.628 30.988 129.756 30.596C129.884 30.196 130.072 29.852 130.32 29.564C130.568 29.268 130.88 29.036 131.256 28.868C131.632 28.692 132.088 28.604 132.624 28.604C132.944 28.604 133.228 28.64 133.476 28.712C133.724 28.776 133.956 28.884 134.172 29.036C134.396 29.18 134.588 29.372 134.748 29.612C134.908 29.852 135.024 30.144 135.096 30.488H134.052C133.932 30.136 133.74 29.884 133.476 29.732C133.22 29.58 132.916 29.508 132.564 29.516C132.22 29.516 131.916 29.584 131.652 29.72C131.396 29.848 131.188 30.02 131.028 30.236C130.876 30.452 130.764 30.704 130.692 30.992C130.62 31.272 130.584 31.56 130.584 31.856C130.584 32.168 130.62 32.464 130.692 32.744C130.772 33.024 130.888 33.272 131.04 33.488C131.2 33.696 131.404 33.864 131.652 33.992C131.9 34.112 132.196 34.172 132.54 34.172C132.708 34.172 132.872 34.156 133.032 34.124C133.2 34.092 133.352 34.04 133.488 33.968C133.632 33.888 133.756 33.784 133.86 33.656C133.964 33.528 134.04 33.372 134.088 33.188H135.144C135.08 33.516 134.964 33.8 134.796 34.04C134.636 34.272 134.436 34.468 134.196 34.628C133.956 34.78 133.692 34.892 133.404 34.964C133.116 35.036 132.816 35.072 132.504 35.072ZM136.749 32.216C136.773 32.496 136.829 32.756 136.917 32.996C137.013 33.228 137.141 33.432 137.301 33.608C137.461 33.784 137.657 33.924 137.889 34.028C138.129 34.124 138.405 34.172 138.717 34.172C138.869 34.172 139.025 34.16 139.185 34.136C139.353 34.104 139.509 34.056 139.653 33.992C139.797 33.92 139.925 33.828 140.037 33.716C140.149 33.604 140.233 33.468 140.289 33.308H141.333C141.261 33.612 141.137 33.876 140.961 34.1C140.793 34.324 140.589 34.508 140.349 34.652C140.117 34.796 139.857 34.904 139.569 34.976C139.281 35.04 138.989 35.072 138.693 35.072C138.189 35.072 137.749 34.992 137.373 34.832C137.005 34.672 136.697 34.452 136.449 34.172C136.201 33.884 136.017 33.544 135.897 33.152C135.777 32.752 135.717 32.316 135.717 31.844C135.717 31.372 135.781 30.94 135.909 30.548C136.045 30.148 136.237 29.804 136.485 29.516C136.733 29.228 137.037 29.004 137.397 28.844C137.757 28.684 138.185 28.604 138.681 28.604C139.185 28.604 139.621 28.704 139.989 28.904C140.357 29.104 140.653 29.368 140.877 29.696C141.101 30.016 141.257 30.364 141.345 30.74C141.441 31.116 141.481 31.464 141.465 31.784C141.465 31.856 141.461 31.928 141.453 32C141.453 32.072 141.449 32.144 141.441 32.216H136.749ZM140.433 31.328C140.417 30.792 140.249 30.356 139.929 30.02C139.609 29.684 139.181 29.516 138.645 29.516C138.349 29.516 138.089 29.564 137.865 29.66C137.641 29.756 137.453 29.888 137.301 30.056C137.149 30.224 137.029 30.42 136.941 30.644C136.853 30.86 136.797 31.088 136.773 31.328H140.433ZM143.376 37.28H142.356V28.676H143.328L143.376 29.648C143.592 29.304 143.884 29.048 144.252 28.88C144.628 28.704 145.032 28.612 145.464 28.604C145.952 28.604 146.364 28.688 146.7 28.856C147.044 29.016 147.328 29.244 147.552 29.54C147.784 29.828 147.956 30.172 148.068 30.572C148.18 30.964 148.236 31.388 148.236 31.844C148.236 32.308 148.18 32.736 148.068 33.128C147.956 33.52 147.784 33.86 147.552 34.148C147.32 34.436 147.028 34.664 146.676 34.832C146.324 34.992 145.904 35.072 145.416 35.072C144.936 35.072 144.528 34.996 144.192 34.844C143.856 34.692 143.584 34.492 143.376 34.244V37.28ZM145.332 34.172C145.676 34.172 145.964 34.112 146.196 33.992C146.436 33.864 146.628 33.696 146.772 33.488C146.924 33.272 147.032 33.024 147.096 32.744C147.168 32.464 147.208 32.164 147.216 31.844C147.216 31.524 147.18 31.224 147.108 30.944C147.044 30.656 146.936 30.408 146.784 30.2C146.632 29.992 146.432 29.828 146.184 29.708C145.944 29.58 145.652 29.516 145.308 29.516C144.9 29.516 144.548 29.628 144.252 29.852C143.956 30.068 143.732 30.344 143.58 30.68C143.492 30.864 143.432 31.056 143.4 31.256C143.368 31.448 143.352 31.648 143.352 31.856C143.352 32.096 143.368 32.32 143.4 32.528C143.432 32.728 143.492 32.92 143.58 33.104C143.732 33.408 143.952 33.664 144.24 33.872C144.536 34.072 144.9 34.172 145.332 34.172ZM149.071 28.676H151.519C151.927 28.676 152.275 28.704 152.563 28.76C152.859 28.816 153.107 28.916 153.307 29.06C153.483 29.18 153.619 29.34 153.715 29.54C153.819 29.74 153.871 29.976 153.871 30.248C153.871 30.88 153.587 31.332 153.019 31.604C153.451 31.7 153.763 31.888 153.955 32.168C154.147 32.448 154.243 32.768 154.243 33.128C154.235 33.464 154.179 33.74 154.075 33.956C153.971 34.164 153.823 34.348 153.631 34.508C153.447 34.66 153.219 34.78 152.947 34.868C152.675 34.956 152.367 35 152.023 35H149.071V28.676ZM150.115 29.576V31.376H150.991C151.191 31.376 151.395 31.372 151.603 31.364C151.811 31.348 151.995 31.312 152.155 31.256C152.355 31.192 152.523 31.088 152.659 30.944C152.795 30.8 152.867 30.628 152.875 30.428C152.875 30.196 152.823 30.028 152.719 29.924C152.623 29.812 152.503 29.732 152.359 29.684C152.215 29.628 152.059 29.596 151.891 29.588C151.723 29.58 151.567 29.576 151.423 29.576H150.115ZM150.115 34.112H151.783C151.967 34.112 152.143 34.1 152.311 34.076C152.487 34.052 152.639 34.008 152.767 33.944C152.895 33.872 152.999 33.776 153.079 33.656C153.159 33.536 153.203 33.384 153.211 33.2C153.211 32.96 153.155 32.772 153.043 32.636C152.931 32.492 152.779 32.388 152.587 32.324C152.427 32.276 152.247 32.248 152.047 32.24C151.847 32.232 151.639 32.228 151.423 32.228L150.115 32.24V34.112ZM156.15 35H155.154V28.676H156.174V33.524C156.23 33.412 156.306 33.292 156.402 33.164C156.498 33.028 156.574 32.924 156.63 32.852L159.69 28.676H160.698V35H159.678V30.152C159.614 30.272 159.542 30.388 159.462 30.5C159.39 30.604 159.322 30.696 159.258 30.776L156.15 35ZM164.522 35.072C164.018 35.072 163.582 34.992 163.214 34.832C162.846 34.672 162.542 34.448 162.302 34.16C162.062 33.872 161.882 33.532 161.762 33.14C161.642 32.748 161.582 32.32 161.582 31.856C161.582 31.408 161.646 30.988 161.774 30.596C161.902 30.196 162.09 29.852 162.338 29.564C162.586 29.268 162.898 29.036 163.274 28.868C163.65 28.692 164.106 28.604 164.642 28.604C164.962 28.604 165.246 28.64 165.494 28.712C165.742 28.776 165.974 28.884 166.19 29.036C166.414 29.18 166.606 29.372 166.766 29.612C166.926 29.852 167.042 30.144 167.114 30.488H166.07C165.95 30.136 165.758 29.884 165.494 29.732C165.238 29.58 164.934 29.508 164.582 29.516C164.238 29.516 163.934 29.584 163.67 29.72C163.414 29.848 163.206 30.02 163.046 30.236C162.894 30.452 162.782 30.704 162.71 30.992C162.638 31.272 162.602 31.56 162.602 31.856C162.602 32.168 162.638 32.464 162.71 32.744C162.79 33.024 162.906 33.272 163.058 33.488C163.218 33.696 163.422 33.864 163.67 33.992C163.918 34.112 164.214 34.172 164.558 34.172C164.726 34.172 164.89 34.156 165.05 34.124C165.218 34.092 165.37 34.04 165.506 33.968C165.65 33.888 165.774 33.784 165.878 33.656C165.982 33.528 166.058 33.372 166.106 33.188H167.162C167.098 33.516 166.982 33.8 166.814 34.04C166.654 34.272 166.454 34.468 166.214 34.628C165.974 34.78 165.71 34.892 165.422 34.964C165.134 35.036 164.834 35.072 164.522 35.072ZM167.975 35V28.676H168.995V31.448H172.163V28.676H173.183V35H172.163V32.348H168.995V35H167.975ZM174.315 28.676H175.359V31.088H176.499C176.859 31.088 177.187 31.116 177.483 31.172C177.787 31.22 178.055 31.324 178.287 31.484C178.503 31.644 178.667 31.848 178.779 32.096C178.899 32.336 178.959 32.636 178.959 32.996C178.943 33.356 178.875 33.656 178.755 33.896C178.643 34.128 178.495 34.324 178.311 34.484C178.087 34.668 177.815 34.8 177.495 34.88C177.175 34.96 176.847 35 176.511 35H174.315V28.676ZM179.835 35V28.676H180.855V35H179.835ZM175.695 34.112C175.999 34.112 176.303 34.108 176.607 34.1C176.919 34.084 177.187 34.02 177.411 33.908C177.563 33.844 177.683 33.736 177.771 33.584C177.867 33.424 177.919 33.24 177.927 33.032C177.927 32.784 177.875 32.588 177.771 32.444C177.675 32.3 177.547 32.196 177.387 32.132C177.235 32.06 177.063 32.016 176.871 32C176.679 31.984 176.491 31.976 176.307 31.976H175.359V34.112H175.695ZM184.848 27.056C185.184 27.056 185.452 26.992 185.652 26.864C185.86 26.736 185.964 26.512 185.964 26.192H186.9C186.884 26.768 186.692 27.188 186.324 27.452C185.964 27.716 185.468 27.848 184.836 27.848C184.204 27.848 183.708 27.716 183.348 27.452C182.996 27.188 182.812 26.768 182.796 26.192H183.732C183.74 26.512 183.844 26.736 184.044 26.864C184.244 26.992 184.512 27.056 184.848 27.056ZM182.976 35H181.98V28.676H183V33.524C183.056 33.412 183.132 33.292 183.228 33.164C183.324 33.028 183.4 32.924 183.456 32.852L186.516 28.676H187.524V35H186.504V30.152C186.44 30.272 186.368 30.388 186.288 30.5C186.216 30.604 186.148 30.696 186.084 30.776L182.976 35ZM195.482 34.112V28.676H196.514V34.112H197.342V36.944H196.346V35H191.402V28.676H192.422V34.112H195.482ZM198.722 32.216C198.746 32.496 198.802 32.756 198.89 32.996C198.986 33.228 199.114 33.432 199.274 33.608C199.434 33.784 199.63 33.924 199.862 34.028C200.102 34.124 200.378 34.172 200.69 34.172C200.842 34.172 200.998 34.16 201.158 34.136C201.326 34.104 201.482 34.056 201.626 33.992C201.77 33.92 201.898 33.828 202.01 33.716C202.122 33.604 202.206 33.468 202.262 33.308H203.306C203.234 33.612 203.11 33.876 202.934 34.1C202.766 34.324 202.562 34.508 202.322 34.652C202.09 34.796 201.83 34.904 201.542 34.976C201.254 35.04 200.962 35.072 200.666 35.072C200.162 35.072 199.722 34.992 199.346 34.832C198.978 34.672 198.67 34.452 198.422 34.172C198.174 33.884 197.99 33.544 197.87 33.152C197.75 32.752 197.69 32.316 197.69 31.844C197.69 31.372 197.754 30.94 197.882 30.548C198.018 30.148 198.21 29.804 198.458 29.516C198.706 29.228 199.01 29.004 199.37 28.844C199.73 28.684 200.158 28.604 200.654 28.604C201.158 28.604 201.594 28.704 201.962 28.904C202.33 29.104 202.626 29.368 202.85 29.696C203.074 30.016 203.23 30.364 203.318 30.74C203.414 31.116 203.454 31.464 203.438 31.784C203.438 31.856 203.434 31.928 203.426 32C203.426 32.072 203.422 32.144 203.414 32.216H198.722ZM202.406 31.328C202.39 30.792 202.222 30.356 201.902 30.02C201.582 29.684 201.154 29.516 200.618 29.516C200.322 29.516 200.062 29.564 199.838 29.66C199.614 29.756 199.426 29.888 199.274 30.056C199.122 30.224 199.002 30.42 198.914 30.644C198.826 30.86 198.77 31.088 198.746 31.328H202.406ZM204.329 35V28.676H205.349V31.448H208.517V28.676H209.537V35H208.517V32.348H205.349V35H204.329ZM215.337 28.676V29.576H213.165V35H212.145V29.576H209.973V28.676H215.337ZM216.788 37.28H215.768V28.676H216.74L216.788 29.648C217.004 29.304 217.296 29.048 217.664 28.88C218.04 28.704 218.444 28.612 218.876 28.604C219.364 28.604 219.776 28.688 220.112 28.856C220.456 29.016 220.74 29.244 220.964 29.54C221.196 29.828 221.368 30.172 221.48 30.572C221.592 30.964 221.648 31.388 221.648 31.844C221.648 32.308 221.592 32.736 221.48 33.128C221.368 33.52 221.196 33.86 220.964 34.148C220.732 34.436 220.44 34.664 220.088 34.832C219.736 34.992 219.316 35.072 218.828 35.072C218.348 35.072 217.94 34.996 217.604 34.844C217.268 34.692 216.996 34.492 216.788 34.244V37.28ZM218.744 34.172C219.088 34.172 219.376 34.112 219.608 33.992C219.848 33.864 220.04 33.696 220.184 33.488C220.336 33.272 220.444 33.024 220.508 32.744C220.58 32.464 220.62 32.164 220.628 31.844C220.628 31.524 220.592 31.224 220.52 30.944C220.456 30.656 220.348 30.408 220.196 30.2C220.044 29.992 219.844 29.828 219.596 29.708C219.356 29.58 219.064 29.516 218.72 29.516C218.312 29.516 217.96 29.628 217.664 29.852C217.368 30.068 217.144 30.344 216.992 30.68C216.904 30.864 216.844 31.056 216.812 31.256C216.78 31.448 216.764 31.648 216.764 31.856C216.764 32.096 216.78 32.32 216.812 32.528C216.844 32.728 216.904 32.92 216.992 33.104C217.144 33.408 217.364 33.664 217.652 33.872C217.948 34.072 218.312 34.172 218.744 34.172Z" fill="white"/>
</svg>
