<svg width="74" height="24" viewBox="0 0 74 24" fill="none" xmlns="http://www.w3.org/2000/svg">
<g clip-path="url(#clip0_1458_29898)">
<path d="M70.5965 8.83947H73.9917C73.5623 5.5291 71.1488 3.78906 67.7943 3.78906C64.3992 3.78906 62.1289 5.59279 62.1289 8.69093C62.1289 12.2135 65.0536 12.9985 66.6081 13.317C68.6125 13.7201 70.576 13.7626 70.576 15.545C70.576 16.7546 69.5943 17.3487 68.2035 17.3487C66.4854 17.3487 65.3401 16.4575 65.0537 14.8448H61.6993C61.9038 18.3249 64.3379 20.1923 67.9172 20.1923C71.2306 20.1923 73.9508 18.622 73.9508 15.2268C73.9508 11.5768 70.8215 10.9191 68.633 10.5795C67.1398 10.3461 65.5036 10.1339 65.5036 8.49992C65.5036 7.35405 66.3422 6.65382 67.7535 6.65382C69.3898 6.65382 70.3715 7.60877 70.5965 8.83947Z" fill="white"/>
<path d="M59.8381 4.31934H56.6268V19.7039H59.8381V4.31934Z" fill="white"/>
<path d="M46.932 14.3351H51.125C50.4704 15.9904 48.9977 16.7754 47.3001 16.7754C44.314 16.7754 42.9232 14.3776 42.9232 12.0009C42.9232 9.60299 44.2322 7.16272 47.2797 7.16272C49.141 7.16272 50.5317 8.05396 51.0636 9.64546L54.5201 9.64547C53.9271 6.05933 50.8999 4.00098 47.3207 4.00098C42.9028 4.00098 39.5893 7.12025 39.5893 12.0434C39.5893 17.0301 43.189 19.9797 47.3001 19.9797C51.3499 19.9797 54.5201 17.2423 54.5201 12.9558V11.7038H46.932V14.3351Z" fill="white"/>
<path d="M32.2466 4.00098C28.565 4.00098 25.8447 6.39879 25.8652 10.3882H29.1786C29.1377 8.64814 30.2012 7.05665 32.0829 7.05665C33.7192 7.05665 34.6805 8.24499 34.6805 9.603C34.6805 10.9611 33.7192 11.7251 31.9398 12.5527C29.5058 13.6773 27.7673 14.3988 25.9879 15.0354V19.7038H38.3826V16.5632H29.8735C29.8735 16.5632 29.9018 16.554 29.9158 16.5497C31.363 16.0947 32.4503 15.6004 33.7397 15.0142C36.5009 13.741 38.0758 12.1494 38.0758 9.43331C38.0758 6.10169 35.7032 4.00098 32.2466 4.00098Z" fill="white"/>
<path d="M17.1521 14.2929C12.9796 14.3142 12.3047 16.9242 12.0797 19.1311L11.9775 20.1072H11.1388L11.0366 19.1311C10.8116 16.9242 10.1162 14.3142 6.08688 14.2929C5.41194 12.8499 5.12559 11.6828 5.12559 10.3672C5.12559 7.07811 7.72318 4.0011 11.5683 4.0011C15.4135 4.0011 17.9702 7.05677 17.9702 10.3885C17.9702 11.6828 17.8475 12.8499 17.1521 14.2929ZM11.5275 0.0117188C5.18701 0.0117188 -0.00817871 5.40168 -0.00817871 12.001C-0.00817871 18.6218 5.18701 24.0117 11.5275 24.0117C17.9293 24.0117 23.104 18.6218 23.104 12.001C23.104 5.40169 17.9293 0.0117188 11.5275 0.0117188Z" fill="#29B24A"/>
</g>
<defs>
<clipPath id="clip0_1458_29898">
<rect width="74" height="24" fill="white"/>
</clipPath>
</defs>
</svg>
