<svg width="82" height="24" viewBox="0 0 82 24" fill="none" xmlns="http://www.w3.org/2000/svg">
<g clip-path="url(#clip0_1458_30009)">
<path d="M78.1793 20.8979C79.788 20.8979 80.9275 20.6036 81.7766 19.9696V17.0942C80.9052 17.7055 79.855 18.0904 78.3804 18.0904C75.9003 18.0904 74.8725 16.1432 74.8725 13.064C74.8725 9.82623 76.1237 8.1734 78.4027 8.1734C79.7433 8.1734 81.0616 8.64887 81.7542 9.1017V6.11302C81.0169 5.70547 79.7433 5.41113 78.0005 5.41113C73.5542 5.41113 71.2528 8.64887 71.2528 13.1772C71.2752 18.1357 73.5319 20.8979 78.1793 20.8979ZM56.4392 19.5847V16.7092C55.3667 17.4564 53.5346 18.113 51.8588 18.113C49.3117 18.113 48.3509 16.8904 48.1945 14.3998H56.5956V12.5432C56.5956 7.3583 54.339 5.41113 50.8757 5.41113C46.6305 5.41113 44.6196 8.69415 44.6196 13.1998C44.6196 18.3847 47.1444 20.8979 51.5684 20.8979C53.7804 20.8979 55.4114 20.2866 56.4392 19.5847ZM24.5553 5.68283V11.5696H19.9079V5.68283H16.4223V20.6036H19.9079V14.3772H24.5553V20.6036H28.0409V5.68283H24.5553ZM43.7482 17.796H42.2065V5.68283H32.0627V6.95076C32.0627 10.596 31.8392 15.3055 30.6103 17.796H29.4932V23.9998H32.7106V20.6036H40.5084V23.9998H43.7259V17.796H43.7482ZM67.5439 20.6036H71.4986L65.9128 12.5658L70.8283 5.68283H67.3204L62.4049 12.5658V5.68283H58.9193V20.6036H62.4049V13.2677L67.5439 20.6036ZM50.7864 8.1734C52.5068 8.1734 53.043 9.62245 53.043 11.5017V11.796H48.1945C48.2839 9.41868 49.133 8.1734 50.7864 8.1734ZM38.721 17.796H33.8054C34.7662 15.5545 35.0343 11.4791 35.0343 8.89792V8.44509H38.721V17.796Z" fill="white"/>
<path d="M13.5177 20.6038H9.96512V2.78491H8.37875C5.47411 2.78491 3.95477 4.2566 3.95477 6.45283C3.95477 8.9434 5.0049 10.0981 7.17221 11.5698L8.95967 12.7925L3.82071 20.6038H0L4.62507 13.6302C1.96621 11.7057 0.46921 9.82641 0.46921 6.6566C0.46921 2.69434 3.1951 0 8.3564 0H13.4954L13.5177 20.6038Z" fill="#FC3F1D"/>
</g>
<defs>
<clipPath id="clip0_1458_30009">
<rect width="82" height="24" fill="white"/>
</clipPath>
</defs>
</svg>
