<svg width="117" height="23" viewBox="0 0 117 23" fill="none" xmlns="http://www.w3.org/2000/svg">
<g clip-path="url(#clip0_1458_29870)">
<path d="M22.2857 10.7333C22.2857 4.80548 17.2969 0 11.1429 0C4.98883 0 0 4.80548 0 10.7333C0 16.6612 4.98883 21.4667 11.1429 21.4667C17.2969 21.4667 22.2857 16.6612 22.2857 10.7333Z" fill="#FF0000"/>
<path d="M12.57 6.08089H11.5408C9.65371 6.08089 8.6604 7.00166 8.6604 8.35942C8.6604 9.89429 9.34648 10.615 10.7561 11.5357L11.9205 12.2909L8.57444 17.1079H6.07446L9.07746 12.7992C7.34873 11.6063 6.38089 10.4494 6.38089 8.48976C6.38089 6.03412 8.15818 4.35742 11.5289 4.35742H14.8749V17.0964H12.57V6.08089Z" fill="white"/>
<path d="M53.6019 19.365C53.8717 19.4585 54.3381 19.5996 55.0019 19.5996C57.3101 19.5996 58.2437 18.0747 59.5458 15.0502L64.7288 3.06641H61.9527L58.4403 11.6968L54.8053 3.06641H51.7347L56.9424 15.0732C56.4258 16.2692 55.9101 17.0895 54.7313 17.0895C54.1909 17.0895 53.8478 17.0197 53.6011 16.9262V19.3642L53.6019 19.365ZM69.1772 19.5996C70.5279 19.5996 71.4854 19.365 72.1985 18.872V16.5981C71.4615 17.091 70.5772 17.3954 69.3491 17.3954C67.2607 17.3954 66.4011 15.8483 66.4011 13.4087C66.4011 10.8527 67.4573 9.53937 69.3738 9.53937C70.504 9.53937 71.6088 9.91504 72.1985 10.2669V7.89641C71.5841 7.56827 70.5032 7.33367 69.0547 7.33367C65.321 7.33367 63.3798 9.88974 63.3798 13.4777C63.3798 17.4176 65.2717 19.5988 69.1772 19.5988V19.5996ZM73.0597 16.9492V19.3642C73.0597 19.3642 73.5261 19.5996 74.2138 19.5996C76.7193 19.5996 77.3577 17.9106 77.5057 13.9952L77.6776 9.77321H80.6496V19.3642H83.5722V7.56981H75.1968L74.9508 13.8779C74.8529 16.3872 74.6802 17.1616 73.7227 17.1616C73.3049 17.1616 73.0597 16.9492 73.0597 16.9492ZM87.6075 22.9997C90.3343 22.9997 91.3412 21.1475 92.1769 18.7317L96.0331 7.56904H93.2084L90.4816 16.4332L87.7556 7.56904H84.6849L88.9343 19.8809C88.6151 20.4437 88.1479 20.7956 87.3377 20.7956C86.7973 20.7956 86.3309 20.6315 86.0109 20.3264V22.6011C86.0109 22.6011 86.4534 22.9997 87.6075 22.9997ZM97.1418 7.56904V19.365H100.065V9.77397H104.584V7.56827H97.1418V7.56904ZM106.305 7.56904V19.365H108.835L113.355 12.0717V19.365H116.204V7.56904H113.674L109.155 14.8623V7.56904H106.305Z" fill="white"/>
<path d="M35.0204 21.4667C41.1745 21.4667 46.1633 16.6612 46.1633 10.7333C46.1633 4.80548 41.1745 0 35.0204 0C28.8664 0 23.8776 4.80548 23.8776 10.7333C23.8776 16.6612 28.8664 21.4667 35.0204 21.4667Z" fill="#242729"/>
<path d="M31.6505 3.75463C30.4408 4.52743 29.5943 5.72673 29.2931 7.09454C28.992 8.46235 29.2602 9.88937 30.0402 11.0686C30.8201 12.2479 32.0494 13.0851 33.4636 13.4003C34.8779 13.7154 36.364 13.4833 37.6024 12.7538L45.7319 7.76507C45.1735 5.90149 44.1021 4.21813 42.6313 2.89339C41.1604 1.56865 39.3449 0.651881 37.3771 0.240234L31.6505 3.75463Z" fill="#FF9D7C"/>
<path d="M31.6505 3.75463C30.4408 4.52743 29.5943 5.72673 29.2931 7.09454C28.992 8.46235 29.2602 9.88937 30.0402 11.0686C30.8201 12.2479 32.0494 13.0851 33.4636 13.4003C34.8779 13.7154 36.364 13.4833 37.6024 12.7538L45.7319 7.76507C45.1735 5.90149 44.1021 4.21813 42.6313 2.89339C41.1604 1.56865 39.3449 0.651881 37.3771 0.240234L31.6505 3.75463Z" fill="#FF6432"/>
<path d="M31.6505 3.75463C30.4408 4.52743 29.5943 5.72673 29.2931 7.09454C28.992 8.46235 29.2602 9.88937 30.0402 11.0686C30.8201 12.2479 32.0494 13.0851 33.4636 13.4003C34.8779 13.7154 36.364 13.4833 37.6024 12.7538L45.7319 7.76507C45.1735 5.90149 44.1021 4.21813 42.6313 2.89339C41.1604 1.56865 39.3449 0.651881 37.3771 0.240234L31.6505 3.75463Z" fill="url(#paint0_radial_1458_29870)"/>
<path d="M31.6505 3.75463C30.4408 4.52743 29.5943 5.72673 29.2931 7.09454C28.992 8.46235 29.2602 9.88937 30.0402 11.0686C30.8201 12.2479 32.0494 13.0851 33.4636 13.4003C34.8779 13.7154 36.364 13.4833 37.6024 12.7538L45.7319 7.76507C45.1735 5.90149 44.1021 4.21813 42.6313 2.89339C41.1604 1.56865 39.3449 0.651881 37.3771 0.240234L31.6505 3.75463Z" fill="url(#paint1_linear_1458_29870)"/>
<path d="M24.3074 13.6956L32.4401 8.70462C33.0536 8.32817 33.738 8.07181 34.4544 7.95017C35.1707 7.82852 35.9049 7.84398 36.615 7.99565C37.3252 8.14732 37.9974 8.43225 38.5932 8.83415C39.189 9.23605 39.6968 9.74706 40.0876 10.338C40.4785 10.9289 40.7446 11.5882 40.8709 12.2783C40.9972 12.9683 40.9811 13.6755 40.8237 14.3595C40.6662 15.0436 40.3704 15.6911 39.9532 16.265C39.5359 16.8389 39.0054 17.3281 38.3919 17.7045L32.6558 21.2243C30.6887 20.8113 28.8742 19.8935 27.4045 18.5681C25.9348 17.2428 24.8646 15.5591 24.3074 13.6956Z" fill="#FFE66E"/>
<path d="M24.3074 13.6956L32.4401 8.70462C33.0536 8.32817 33.738 8.07181 34.4544 7.95017C35.1707 7.82852 35.9049 7.84398 36.615 7.99565C37.3252 8.14732 37.9974 8.43225 38.5932 8.83415C39.189 9.23605 39.6968 9.74706 40.0876 10.338C40.4785 10.9289 40.7446 11.5882 40.8709 12.2783C40.9972 12.9683 40.9811 13.6755 40.8237 14.3595C40.6662 15.0436 40.3704 15.6911 39.9532 16.265C39.5359 16.8389 39.0054 17.3281 38.3919 17.7045L32.6558 21.2243C30.6887 20.8113 28.8742 19.8935 27.4045 18.5681C25.9348 17.2428 24.8646 15.5591 24.3074 13.6956Z" fill="url(#paint2_linear_1458_29870)"/>
</g>
<defs>
<radialGradient id="paint0_radial_1458_29870" cx="0" cy="0" r="1" gradientUnits="userSpaceOnUse" gradientTransform="translate(32.4592 14.9541) rotate(-33.8831) scale(13.1844 9.57199)">
<stop stop-color="#CC0700" stop-opacity="0.97"/>
<stop offset="0.067" stop-color="#CC0700" stop-opacity="0.962"/>
<stop offset="0.133" stop-color="#CC0700" stop-opacity="0.936"/>
<stop offset="0.2" stop-color="#CC0700" stop-opacity="0.891"/>
<stop offset="0.267" stop-color="#CC0700" stop-opacity="0.827"/>
<stop offset="0.333" stop-color="#CC0700" stop-opacity="0.745"/>
<stop offset="0.4" stop-color="#CC0700" stop-opacity="0.648"/>
<stop offset="0.467" stop-color="#CC0700" stop-opacity="0.541"/>
<stop offset="0.533" stop-color="#CC0700" stop-opacity="0.429"/>
<stop offset="0.6" stop-color="#CC0700" stop-opacity="0.322"/>
<stop offset="0.667" stop-color="#CC0700" stop-opacity="0.225"/>
<stop offset="0.733" stop-color="#CC0700" stop-opacity="0.143"/>
<stop offset="0.8" stop-color="#CC0700" stop-opacity="0.079"/>
<stop offset="0.867" stop-color="#CC0700" stop-opacity="0.034"/>
<stop offset="0.933" stop-color="#CC0700" stop-opacity="0.01"/>
<stop offset="1" stop-color="#CC0700" stop-opacity="0"/>
</radialGradient>
<linearGradient id="paint1_linear_1458_29870" x1="33.1747" y1="12.191" x2="40.422" y2="-5.9693" gradientUnits="userSpaceOnUse">
<stop stop-color="#FF8140" stop-opacity="0"/>
<stop offset="0.067" stop-color="#FF8140" stop-opacity="0.01"/>
<stop offset="0.133" stop-color="#FF8140" stop-opacity="0.036"/>
<stop offset="0.2" stop-color="#FF8140" stop-opacity="0.082"/>
<stop offset="0.267" stop-color="#FF8140" stop-opacity="0.147"/>
<stop offset="0.333" stop-color="#FF8140" stop-opacity="0.232"/>
<stop offset="0.4" stop-color="#FF8140" stop-opacity="0.332"/>
<stop offset="0.467" stop-color="#FF8140" stop-opacity="0.443"/>
<stop offset="0.533" stop-color="#FF8140" stop-opacity="0.557"/>
<stop offset="0.6" stop-color="#FF8140" stop-opacity="0.668"/>
<stop offset="0.667" stop-color="#FF8140" stop-opacity="0.768"/>
<stop offset="0.733" stop-color="#FF8140" stop-opacity="0.853"/>
<stop offset="0.8" stop-color="#FF8140" stop-opacity="0.918"/>
<stop offset="0.867" stop-color="#FF8140" stop-opacity="0.964"/>
<stop offset="0.933" stop-color="#FF8140" stop-opacity="0.991"/>
<stop offset="1" stop-color="#FF8140"/>
</linearGradient>
<linearGradient id="paint2_linear_1458_29870" x1="33.5066" y1="12.163" x2="26.5261" y2="22.5103" gradientUnits="userSpaceOnUse">
<stop stop-color="#FFD750" stop-opacity="0"/>
<stop offset="1" stop-color="#FFD750"/>
</linearGradient>
<clipPath id="clip0_1458_29870">
<rect width="117" height="23" fill="white"/>
</clipPath>
</defs>
</svg>
