<svg width="72" height="24" viewBox="0 0 72 24" fill="none" xmlns="http://www.w3.org/2000/svg">
<path d="M51.0102 15.9204C52.4324 15.5001 53.266 14.2618 53.266 12.5693C53.266 11.5315 52.9871 10.7151 52.424 10.1052C50.7824 8.32678 47.9939 9.0953 47.2987 11.5177C47.0138 12.5103 47.0143 12.5861 47.3116 13.6694C47.5778 14.6393 48.4189 15.6441 49.0869 15.7901C49.2851 15.8334 49.5769 15.9254 49.7354 15.9945C50.1364 16.1694 50.1755 16.1671 51.0102 15.9204ZM48.4302 23.7528C46.9359 23.2584 45.5852 22.0931 44.8773 20.6877C44.6742 20.2844 44.7766 20.201 46.1142 19.6806C47.0562 19.3141 47.3576 19.2735 47.3576 19.5129C47.3576 19.8604 48.2538 20.794 48.8684 21.0867C50.0979 21.6721 51.7146 21.321 52.4818 20.302C52.8359 19.8319 53.1512 18.5816 53.0936 17.8765L53.063 17.5018L52.48 17.9135C51.6507 18.4991 50.2794 18.7567 49.159 18.5373C47.8185 18.2749 46.9697 17.8227 46.0707 16.892C45.1213 15.9092 44.7125 15.113 44.4148 13.6667C43.8185 10.7696 45.6335 7.66978 48.4655 6.74879C49.9043 6.28087 51.9217 6.58216 52.7728 7.39209L53.0999 7.70341L53.1469 7.287L53.194 6.8706H54.4909H55.7879L55.83 12.7096C55.8742 18.8442 55.8084 19.6829 55.1801 20.9876C54.558 22.2795 53.3516 23.2969 51.8699 23.7792C50.9344 24.0837 49.3946 24.0719 48.4302 23.7528Z" fill="#4286F5"/>
<path d="M26.3566 15.4555C27.4722 14.6724 28.0168 12.9703 27.6232 11.4966C27.2952 10.2684 25.9001 9.13277 24.7192 9.13277C22.8145 9.13277 21.4289 10.557 21.4215 12.5225C21.4156 14.0893 22.3731 15.5344 23.6354 15.8637C24.4542 16.0772 25.7473 15.8833 26.3566 15.4555ZM23.4671 18.5316C21.1848 18.1196 19.5291 16.6107 18.7492 14.2322C18.3889 13.1335 18.5089 11.2305 19.0065 10.1527C20.0776 7.83251 22.115 6.5007 24.5806 6.50883C29.2789 6.52431 32.058 11.357 29.8505 15.6726C29.2192 16.9067 27.4167 18.2226 25.9945 18.4876C24.7223 18.7246 24.5524 18.7276 23.4671 18.5316Z" fill="#EA4235"/>
<path d="M64.2164 12.0054C64.7486 11.7656 64.5521 11.8307 64.6456 11.8281C64.7392 11.8256 65.339 11.5639 65.8527 11.323C66.3664 11.0822 66.8897 10.8851 67.0156 10.8851C67.1415 10.8851 66.4004 11.2084 66.4004 11.1447C66.4004 11.081 67.6015 10.5307 68.038 10.3804C68.8092 10.1148 68.8244 10.0993 68.5787 9.82431C67.8528 9.01177 66.3853 8.84979 65.4086 9.47438C64.6167 9.98076 63.9851 10.8406 63.8631 11.5785C63.7537 12.2405 63.7011 12.2376 64.2164 12.0054ZM65.7314 18.5298C63.4529 17.9882 61.9593 16.5308 61.203 14.1112C60.998 13.4554 61.0048 11.5513 61.2146 10.8955C62.0983 8.13195 64.1064 6.50586 66.6353 6.50586C68.0793 6.50586 69.272 7.00254 70.3079 8.0353C71.0486 8.77374 72 10.3878 72 10.9061C72 11.2413 71.8275 11.3426 70.0546 12.0478C68.6288 12.615 67.9408 12.9006 66.8122 13.3942C66.614 13.4808 66.3222 13.605 66.1637 13.6702C66.0052 13.7353 65.5836 13.9151 65.227 14.0697C64.8703 14.2242 64.4877 14.3789 64.3767 14.4134C64.0304 14.521 65.2221 15.6484 65.8755 15.8313C67.1596 16.1906 68.2896 15.9434 69.1851 15.1073C69.5225 14.7922 69.8648 14.5344 69.9457 14.5344C70.19 14.5344 71.9949 15.7634 71.9975 15.9316C72.0025 16.2422 70.7374 17.4132 69.9012 17.8719C69.1343 18.2927 67.376 18.7933 66.8122 18.7514C66.6933 18.7426 66.2069 18.6429 65.7314 18.5298Z" fill="#EA4235"/>
<path d="M7.51193 18.4683C5.7531 18.1836 4.05541 17.2406 2.57066 15.7235C1.52846 14.6587 0.843276 13.5334 0.269032 11.9437C-0.0960749 10.9329 -0.087642 7.6011 0.282613 6.57852C1.4532 3.34557 3.69402 1.1763 6.86344 0.207828C7.87054 -0.0999082 11.0727 -0.0567424 11.9793 0.276788C13.3536 0.782449 15.0362 1.76713 15.5063 2.34085C15.6785 2.55105 15.5907 2.69406 14.7816 3.52096C14.2753 4.03847 13.8267 4.46181 13.7848 4.46171C13.7428 4.46161 13.52 4.29725 13.2895 4.09646C12.0955 3.05634 9.79981 2.50624 8.06076 2.84355C6.08037 3.22766 4.43787 4.49802 3.51514 6.35926C3.05333 7.29077 2.75346 7.34496 2.75346 9.27904C2.75346 11.1165 3.07098 11.3067 3.43493 12.0936C3.64961 12.5577 4.19487 13.3299 4.64662 13.8097C6.29512 15.5603 8.70466 16.2491 11.0098 15.6284C12.303 15.2802 12.857 14.9807 13.6642 14.1931C14.37 13.5044 14.83 12.651 14.9933 11.7272L15.0895 11.1828L12.1654 11.1433L9.24122 11.1037V9.74066V8.3776L13.4203 8.38973C15.7188 8.39639 17.6391 8.40216 17.6876 8.40253C17.7361 8.403 17.8456 8.75511 17.9309 9.18522C18.2519 10.8044 17.6628 13.2568 16.5323 15.0075C15.6013 16.4495 14.6046 17.2277 12.4836 18.169C11.6039 18.5594 9.03133 18.7143 7.51193 18.4683Z" fill="#4185F4"/>
<path d="M38.4667 15.8251C39.1372 15.655 40.0368 14.7994 40.3666 14.0183C40.4987 13.7053 40.7112 13.1029 40.6798 12.501C40.635 11.6416 40.4547 11.0308 40.277 10.8127C39.5263 9.89163 39.1331 9.55395 38.5824 9.35711C37.3488 8.91625 36.2008 9.15742 35.2726 10.0524C33.4578 11.8024 34.1541 15.0512 36.5176 15.8619C37.1949 16.0943 37.4229 16.09 38.4667 15.8251ZM35.9803 18.4714C34.4501 18.1443 32.8516 16.9115 32.1267 15.4992C30.9188 13.1459 31.2257 10.4171 32.9108 8.52772C35.3149 5.83217 39.553 5.83338 42.002 8.53031C44.109 10.8506 43.8906 15.0625 41.5583 17.0848C40.4466 18.0488 39.3645 18.4829 37.907 18.5496C37.2 18.582 36.333 18.5468 35.9803 18.4714Z" fill="#FABC05"/>
<path d="M57.301 9.42477V0.509766L58.7061 0.551548L60.1111 0.593323V9.42477V18.2562L58.7061 18.298L57.301 18.3398V9.42477Z" fill="#34A853"/>
</svg>
