<svg width="68" height="24" viewBox="0 0 68 24" fill="none" xmlns="http://www.w3.org/2000/svg">
<path d="M53.6562 18.9805C61.0516 18.9805 65.3951 16.0254 65.3951 16.0254L65.3918 20.3758C65.3918 20.3758 61.1796 24 53.6591 24H53.6562C46.1359 24 41.9237 20.3758 41.9237 20.3758L41.9202 16.0254C41.9202 16.0254 46.2611 18.9795 53.6562 18.9795V18.9805Z" fill="#E11023"/>
<path d="M18.4694 0.857874C17.6471 0.847811 16.8309 1.00627 16.0683 1.32406C15.3057 1.64185 14.6118 2.11266 14.0268 2.70921C13.4418 3.30577 12.9774 4.0162 12.6604 4.79935C12.3434 5.58249 12.1801 6.42277 12.1801 7.27149C12.1801 8.54982 12.5503 9.79898 13.2431 10.8587C13.9359 11.9184 14.9197 12.7403 16.0683 13.2189C17.2053 13.6927 18.4526 13.8089 19.6534 13.5528C20.8542 13.2968 21.9548 12.68 22.8168 11.7799C23.6742 10.8845 24.2574 9.74849 24.4936 8.51343C24.7298 7.27836 24.6086 5.99886 24.1451 4.83438C23.6816 3.6699 22.8963 2.67193 21.8871 1.96482C20.8778 1.25771 19.6892 0.872738 18.4694 0.857874ZM18.4694 9.66071C17.224 9.66071 16.2176 8.5562 16.2176 7.27105C16.2176 5.98585 17.2275 4.88222 18.4694 4.88222C19.7149 4.88222 20.7222 5.98585 20.7222 7.27105C20.7222 8.5562 19.7157 9.66071 18.4694 9.66071ZM13.179 1.16221H8.87042L7.01501 5.30942L4.88307 1.16221H0.617432L4.95572 9.23624L2.93575 13.3835H7.25572L13.179 1.16221ZM60.6244 0.857874C59.802 0.847799 58.986 1.00627 58.2234 1.32409C57.4608 1.64175 56.7668 2.11251 56.1818 2.70908C55.5968 3.30565 55.1325 4.01614 54.8156 4.79936C54.4984 5.58243 54.335 6.42274 54.335 7.27149C54.335 8.12024 54.4984 8.96054 54.8156 9.74362C55.1324 10.5268 55.5968 11.2372 56.1817 11.8337C56.7667 12.4304 57.4607 12.9012 58.2234 13.2189C59.3604 13.6927 60.6077 13.809 61.8085 13.5529C63.0092 13.2969 64.1098 12.68 64.9716 11.7799C66.1215 10.5794 66.7664 8.95949 66.7664 7.27149C66.7664 5.58349 66.1215 3.96354 64.9716 2.76304C63.8219 1.56236 62.2599 0.877821 60.6244 0.857874ZM60.6244 9.66071C59.3791 9.66071 58.3726 8.5562 58.3726 7.27105C58.3726 5.98585 59.3828 4.88222 60.6244 4.88222C61.8673 4.88222 62.8771 5.98585 62.8771 7.27105C62.8799 8.5562 61.8706 9.66071 60.6244 9.66071ZM33.1945 1.18389V8.03055C33.1808 8.45422 33.008 8.85581 32.7128 9.15053C32.4175 9.44524 32.0229 9.61001 31.6121 9.61004C31.2013 9.61005 30.8066 9.44529 30.5114 9.15057C30.2161 8.85584 30.0434 8.45423 30.0298 8.03055V1.18389H26.0652V8.45234C26.0652 11.6431 28.3941 13.6851 31.4572 13.6851H31.7609C34.824 13.6851 37.1538 11.644 37.1538 8.45234V1.18389H33.1945ZM46.9112 1.18389H41.8938V13.3835H46.9707C50.6709 13.3835 53.2483 10.6533 53.2483 7.28367V7.12651C53.2512 3.75784 50.5618 1.18389 46.9112 1.18389ZM49.3698 7.28367C49.3698 8.52278 48.5258 9.49726 47.1046 9.54062C46.3607 9.56498 45.6895 9.54062 45.6895 9.54062V5.02676C45.6895 5.02676 46.2881 5.00236 47.1046 5.02676C48.5555 5.07012 49.3689 6.04456 49.3689 7.28459L49.3698 7.28367Z" fill="white"/>
</svg>
