<svg width="76" height="24" viewBox="0 0 76 24" fill="none" xmlns="http://www.w3.org/2000/svg">
<path d="M7.54443 4.49659H20.4552C20.7559 4.49659 20.9996 4.74035 20.9996 5.04104V7.58C20.9996 7.91819 20.8529 8.23841 20.5974 8.46L13.3776 14.5H20.4552C20.7559 14.5 20.9996 14.7393 20.9996 15.04V17.9548C20.9996 18.2555 20.7559 18.4992 20.4552 18.4992H7.54443C7.24375 18.4992 7 18.2555 7 17.9548V15.42C7 15.0818 7.14675 14.7616 7.40223 14.54L14.622 8.5H7.54443C7.24375 8.5 7 8.25069 7 7.95V5.04104C7 4.74035 7.24375 4.49659 7.54443 4.49659ZM29.9994 4C31.4922 4 32.8231 4.33571 33.9342 4.9492C35.0453 5.56269 35.9365 6.45395 36.55 7.56506C37.1635 8.67617 37.4992 10.0071 37.4992 11.5C37.4992 12.9929 37.1635 14.3238 36.55 15.4349C35.9365 16.546 35.0453 17.4373 33.9342 18.0508C32.8231 18.6643 31.4922 19 29.9994 19C28.5065 19 27.1756 18.6643 26.0645 18.0508C24.9535 17.4373 24.0622 16.546 23.4487 15.4349C22.8353 14.3238 22.4996 12.9929 22.4996 11.5C22.4996 10.0071 22.8353 8.67617 23.4487 7.56506C24.0622 6.45395 24.9535 5.56269 26.0645 4.9492C27.1756 4.33571 28.5065 4 29.9994 4ZM29.9994 8C29.2853 8 28.6584 8.15085 28.1399 8.43133C27.6214 8.71181 27.2113 9.12192 26.9308 9.64043C26.6503 10.159 26.4995 10.7859 26.4995 11.5C26.4995 12.2141 26.6503 12.841 26.9308 13.3596C27.2113 13.8781 27.6214 14.2882 28.1399 14.5687C28.6584 14.8492 29.2853 15 29.9994 15C30.7135 15 31.3404 14.8492 31.8589 14.5687C32.3774 14.2882 32.7875 13.8781 33.068 13.3596C33.3484 12.841 33.4993 12.2141 33.4993 11.5C33.4993 10.7859 33.3484 10.159 33.068 9.64043C32.7875 9.12192 32.3774 8.71181 31.8589 8.43133C31.3404 8.15085 30.7135 8 29.9994 8ZM45.9989 4C47.4918 4 48.8227 4.33571 49.9338 4.9492C51.0448 5.56269 51.9361 6.45395 52.5496 7.56506C53.163 8.67617 53.4987 10.0071 53.4987 11.5C53.4987 12.9929 53.163 14.3238 52.5496 15.4349C51.9361 16.546 51.0448 17.4373 49.9338 18.0508C48.8227 18.6643 47.4918 19 45.9989 19C44.5061 19 43.1752 18.6643 42.0641 18.0508C40.953 17.4373 40.0618 16.546 39.4483 15.4349C38.8348 14.3238 38.4991 12.9929 38.4991 11.5C38.4991 10.0071 38.8348 8.67617 39.4483 7.56506C40.0618 6.45395 40.953 5.56269 42.0641 4.9492C43.1752 4.33571 44.5061 4 45.9989 4ZM45.9989 8C45.2848 8 44.6579 8.15085 44.1394 8.43133C43.6209 8.71181 43.2108 9.12192 42.9303 9.64043C42.6499 10.159 42.499 10.7859 42.499 11.5C42.499 12.2141 42.6499 12.841 42.9303 13.3596C43.2108 13.8781 43.6209 14.2882 44.1394 14.5687C44.6579 14.8492 45.2848 15 45.9989 15C46.713 15 47.3399 14.8492 47.8584 14.5687C48.3769 14.2882 48.787 13.8781 49.0675 13.3596C49.348 12.841 49.4988 12.2141 49.4988 11.5C49.4988 10.7859 49.348 10.159 49.0675 9.64043C48.787 9.12192 48.3769 8.71181 47.8584 8.43133C47.3399 8.15085 46.713 8 45.9989 8ZM69 5.04277V17.9546C69 18.2553 68.7562 18.4991 68.4555 18.4991H65.9184C65.5802 18.4991 65.26 18.3523 65.0384 18.0969L58.9986 10.8777V17.9546C58.9986 18.2553 58.7493 18.4991 58.4486 18.4991H55.5414C55.2407 18.4991 54.997 18.2553 54.997 17.9546V5.04277C54.997 4.74207 55.2407 4.4983 55.5414 4.4983H58.0786C58.4168 4.4983 58.737 4.64509 58.9586 4.90063L64.9984 12.1223V5.04277C64.9984 4.74207 65.2377 4.4983 65.5384 4.4983H68.4555C68.7562 4.4983 69 4.74207 69 5.04277Z" fill="white"/>
</svg>
