<svg width="56" height="56" viewBox="0 0 56 56" fill="none" xmlns="http://www.w3.org/2000/svg">
<rect width="56" height="56" fill="#323232"/>
<path d="M22.5776 31.4816C21.1628 32.324 17.4534 34.0441 19.7127 36.1966C20.8163 37.248 22.0455 38 23.5909 38H32.4091C33.9545 38 35.1837 37.248 36.2873 36.1966C38.5466 34.0441 34.8372 32.324 33.4224 31.4816C30.1048 29.5061 25.8952 29.5061 22.5776 31.4816Z" stroke="white" stroke-width="1.5" stroke-linecap="round" stroke-linejoin="round"/>
<path d="M32.5 22.5C32.5 24.9853 30.4853 27 28 27C25.5147 27 23.5 24.9853 23.5 22.5C23.5 20.0147 25.5147 18 28 18C30.4853 18 32.5 20.0147 32.5 22.5Z" stroke="white" stroke-width="1.5"/>
</svg>
